<svg width="203" height="147" viewBox="0 0 203 147" fill="none" xmlns="http://www.w3.org/2000/svg">
<path fill-rule="evenodd" clip-rule="evenodd" d="M101.359 0.0109243C102.426 -0.114607 102.4 0.867075 102.573 1.6527C101.148 1.96442 100.76 0.579341 101.359 0.0109243Z" fill="#FF3F12"/>
<path fill-rule="evenodd" clip-rule="evenodd" d="M138.211 0.831543C141.414 0.868215 142.386 3.16586 143.879 4.9374C143.117 6.49032 141.231 6.90641 141.045 9.04467C139.793 6.97411 139.501 6.05308 136.994 5.7597C138.379 5.1123 138.335 3.01353 138.211 0.832953V0.831543Z" fill="#FF3F12"/>
<path fill-rule="evenodd" clip-rule="evenodd" d="M24.8169 1.65088C25.7019 1.71294 25.6878 2.68616 25.6271 3.70451C24.2226 3.99225 24.1746 2.26725 24.8169 1.65088Z" fill="#FF3F12"/>
<path fill-rule="evenodd" clip-rule="evenodd" d="M82.3262 5.34956C82.552 4.7205 84.5676 3.8446 83.1336 2.88689C84.8852 1.63017 83.9254 5.01387 84.3503 5.76001C83.4116 5.89118 82.7948 5.69371 82.3262 5.34956Z" fill="#FF3F12"/>
<path fill-rule="evenodd" clip-rule="evenodd" d="M97.7144 2.47392C98.9325 2.05783 98.43 3.3879 98.5232 4.11711C98.1195 4.11711 97.7144 4.11711 97.3079 4.11711C97.1371 3.25814 97.5845 3.02964 97.7144 2.47392Z" fill="#FF3F12"/>
<path fill-rule="evenodd" clip-rule="evenodd" d="M202.191 7.40128C201.878 7.768 201.758 8.32796 201.787 9.04447C201.247 9.04447 200.708 9.04447 200.167 9.04447C200.167 8.63403 200.167 8.22499 200.167 7.81173C200.637 7.46616 201.252 7.27152 202.191 7.40128Z" fill="#FF3F12"/>
<path fill-rule="evenodd" clip-rule="evenodd" d="M81.1102 7.81348C81.8201 8.04056 81.9867 11.1267 80.2985 10.2761C80.1038 8.98275 81.5407 9.34665 81.1102 7.81348Z" fill="#FF3F12"/>
<path fill-rule="evenodd" clip-rule="evenodd" d="M63.2899 16.4346C63.6159 16.6518 63.9476 16.8619 64.5038 16.845C64.4529 17.8902 63.9152 18.4388 62.8848 18.4882C63.2249 18.0101 63.4197 17.388 63.2899 16.4346Z" fill="#FF3F12"/>
<path fill-rule="evenodd" clip-rule="evenodd" d="M145.904 16.845C146.031 16.2893 146.919 16.5051 147.523 16.4346C147.354 18.9424 147.374 19.2216 146.311 20.9509C144.781 19.5066 147.419 18.814 146.716 16.8464C146.446 16.8464 146.175 16.8464 145.904 16.8464V16.845Z" fill="#FF3F12"/>
<path fill-rule="evenodd" clip-rule="evenodd" d="M61.2639 17.6682C61.2187 18.7148 61.1891 19.7783 60.0514 19.7219C60.1008 18.9842 59.5545 18.8558 59.6449 18.0787C60.0076 17.7599 60.5595 17.6372 61.2639 17.6682Z" fill="#FF3F12"/>
<path fill-rule="evenodd" clip-rule="evenodd" d="M52.7591 19.7172C53.8954 19.6538 54.0817 20.878 53.5707 21.3604C54.7282 22.1009 56.6464 22.0713 56.405 24.2335C55.3393 24.3562 55.0768 23.6651 55.1897 22.5903C54.6025 22.8146 53.0964 22.1108 53.1656 23.0022C52.0646 21.9937 52.666 21.1418 52.7591 19.7172Z" fill="#FF3F12"/>
<path fill-rule="evenodd" clip-rule="evenodd" d="M56.4049 20.9492C56.875 21.2948 57.4904 21.4908 58.429 21.3611C57.4424 22.4669 59.4016 25.041 57.2137 25.4669C58.2046 24.323 56.6421 22.9676 57.6188 22.182C57.7811 21.1975 55.7754 22.4105 56.4049 20.9492Z" fill="#FF3F12"/>
<path fill-rule="evenodd" clip-rule="evenodd" d="M55.5957 25.8795C54.6486 25.7441 53.9217 25.3858 53.1665 25.06C53.199 24.407 52.9718 23.4916 53.5717 23.4154C54.7898 23.0021 54.2887 24.3308 54.3804 25.06C55.4489 24.9528 55.7101 24.2109 55.5972 25.8795H55.5957Z" fill="#FF3F12"/>
<path fill-rule="evenodd" clip-rule="evenodd" d="M159.265 24.6467C160.511 24.3406 160.041 25.7723 161.29 25.4676C160.989 26.9895 159.104 25.9613 159.265 24.6467Z" fill="#FF3F12"/>
<path fill-rule="evenodd" clip-rule="evenodd" d="M52.3565 25.4672C53.3868 25.5152 53.9275 26.0653 53.9769 27.1076C53.6141 27.4264 53.0608 27.5505 52.3565 27.5195C51.8356 26.9792 51.8356 26.0046 52.3565 25.4658V25.4672Z" fill="#FF3F12"/>
<path fill-rule="evenodd" clip-rule="evenodd" d="M49.9266 27.9315C50.7538 28.0514 50.7213 29.0416 51.5456 29.1615C50.3557 30.8032 53.3749 31.5198 52.3572 32.8569C50.9782 32.8879 50.8469 31.6495 50.3317 30.8032C49.6443 30.9556 49.5681 30.4845 49.5215 29.9838C49.849 30.201 50.1793 30.4111 50.7382 30.3942C50.8526 29.7313 50.3543 29.6847 50.3317 29.16C49.1856 29.2292 48.645 29.9146 47.4974 29.9823C47.0514 28.0246 49.9111 29.4167 49.9266 27.9287V27.9315Z" fill="#FF3F12"/>
<path fill-rule="evenodd" clip-rule="evenodd" d="M53.1677 30.3967C51.704 30.7846 52.6017 28.7803 52.3575 27.9326C54.2884 27.9862 52.8953 28.8621 53.1677 30.3967Z" fill="#FF3F12"/>
<path fill-rule="evenodd" clip-rule="evenodd" d="M164.53 29.9858C164.738 30.8011 162.296 30.9238 163.722 31.6276C163.796 31.9774 163.564 32.0155 163.315 32.0381C163.045 32.0381 162.774 32.0381 162.505 32.0381C162.787 31.7066 163.137 30.9139 162.505 30.8067C162.848 30.1974 163.808 30.2143 164.529 29.9873L164.53 29.9858Z" fill="#FF3F12"/>
<path fill-rule="evenodd" clip-rule="evenodd" d="M45.4743 31.628C46.2013 31.5758 46.3283 32.1315 47.0962 32.0384C46.8816 32.3685 46.6713 32.7056 46.6896 33.2712C45.6226 33.3967 45.3586 32.7042 45.4743 31.628Z" fill="#FF3F12"/>
<path fill-rule="evenodd" clip-rule="evenodd" d="M44.2553 32.8569C45.9054 32.9994 44.2384 33.9345 45.067 34.9106C44.0083 35.0262 43.3252 34.7596 43.4465 33.6778C44.1368 33.8287 44.2116 33.3576 44.2567 32.8569H44.2553Z" fill="#FF3F12"/>
<path fill-rule="evenodd" clip-rule="evenodd" d="M49.5214 33.2678C49.712 34.0521 48.2737 35.0351 49.9265 34.911C48.5743 36.6755 46.5036 32.6952 49.5214 33.2678Z" fill="#FF3F12"/>
<path fill-rule="evenodd" clip-rule="evenodd" d="M170.607 39.4282C171.105 39.6059 171.438 39.9543 171.416 40.6624C170.463 40.6511 170.226 41.3676 168.986 41.0714C169.242 40.2336 171.032 40.9558 170.607 39.4282Z" fill="#FF3F12"/>
<path fill-rule="evenodd" clip-rule="evenodd" d="M43.8532 48.0488C44.7227 46.5453 44.7904 49.2392 44.662 50.1025C45.4849 50.4015 45.8222 51.8373 45.0685 52.5665C44.0522 52.1617 43.3973 50.9868 43.4481 49.692C43.4848 48.7667 44.4008 48.5002 43.8546 48.0488H43.8532Z" fill="#FF3F12"/>
<path fill-rule="evenodd" clip-rule="evenodd" d="M167.771 49.2827C167.942 50.1388 167.495 50.3687 167.366 50.9259C168.511 51.2644 168.415 50.3448 169.39 50.514C169.39 51.3335 169.39 52.1572 169.39 52.9767C168.677 52.8794 168.469 52.2729 168.58 51.3335C167.641 51.4661 167.026 51.27 166.556 50.9259C166.442 49.8511 166.704 49.1572 167.771 49.2827Z" fill="#FF3F12"/>
<path fill-rule="evenodd" clip-rule="evenodd" d="M180.324 52.5669C179.957 53.2919 178.832 53.2453 178.705 54.2101C178.63 54.5599 178.86 54.5951 179.108 54.6191C178.18 56.3018 178.569 53.3102 177.895 53.3878C177.94 52.3384 179.251 52.5725 180.325 52.5683L180.324 52.5669Z" fill="#FF3F12"/>
<path fill-rule="evenodd" clip-rule="evenodd" d="M170.199 53.3861C171.511 52.8783 170.51 54.7147 171.82 54.2084C171.537 55.4707 171.537 54.9982 171.82 56.2606C171.279 56.2606 170.737 56.2606 170.199 56.2606C170.199 55.3029 170.199 54.3452 170.199 53.3861Z" fill="#FF3F12"/>
<path fill-rule="evenodd" clip-rule="evenodd" d="M38.9932 54.6202C39.7638 53.3423 40.7519 55.2633 41.8275 55.0306C43.1006 55.2295 42.7435 53.7711 44.2552 54.2111C43.9532 55.4763 45.6526 54.7104 45.0668 56.2634C44.2256 57.1548 43.7584 56.2126 43.0413 55.8543C42.4062 55.7387 42.9073 56.8374 42.6362 57.0857C42.3794 57.3198 39.6043 57.6907 39.3969 57.9065C39.5168 57.0687 40.4922 57.0998 40.6136 56.2634C40.008 55.7796 39.4688 55.2323 38.9946 54.6202H38.9932Z" fill="#FF3F12"/>
<path fill-rule="evenodd" clip-rule="evenodd" d="M172.631 56.2642C173.294 57.0977 172.057 59.4941 170.606 59.5491C170.606 58.7282 170.606 57.9059 170.606 57.0851C170.852 56.3756 172.526 57.1161 172.631 56.2642Z" fill="#FF3F12"/>
<path fill-rule="evenodd" clip-rule="evenodd" d="M181.539 56.2636C181.884 56.1889 181.922 56.423 181.945 56.6741C181.815 57.763 184.213 56.289 183.564 57.9054C182.05 57.8673 182.409 57.4442 181.134 57.9054C181.082 57.1692 181.628 57.038 181.539 56.2622V56.2636Z" fill="#FF3F12"/>
<path fill-rule="evenodd" clip-rule="evenodd" d="M190.45 56.6733C189.313 57.301 189.672 59.4449 188.019 59.5479C188.269 59.1642 188.962 58.033 187.615 58.3165C188.28 57.4858 188.97 56.6804 190.451 56.6733H190.45Z" fill="#FF3F12"/>
<path fill-rule="evenodd" clip-rule="evenodd" d="M165.745 57.0836C167.198 56.841 167.705 57.5617 168.58 57.9045C168.249 58.6083 165.651 58.1697 165.745 57.0836Z" fill="#FF3F12"/>
<path fill-rule="evenodd" clip-rule="evenodd" d="M169.39 57.9043C169.973 57.9974 169.531 59.13 170.2 59.137C170.155 59.9128 168.861 59.4205 168.985 60.3684C168.031 60.02 169.322 58.5672 169.39 57.9043Z" fill="#FF3F12"/>
<path fill-rule="evenodd" clip-rule="evenodd" d="M38.9952 58.3149C39.2775 59.7353 37.5753 59.7889 36.9697 59.1358C37.029 58.2373 37.9888 58.2543 38.9952 58.3149Z" fill="#FF3F12"/>
<path fill-rule="evenodd" clip-rule="evenodd" d="M174.655 59.1376C174.12 60.2392 174.7 62.4705 172.629 62.0107C172.993 61.2871 173.607 60.8132 173.845 59.9585C173.447 58.8089 172.763 60.5551 172.226 59.548C172.594 58.0586 173.42 59.2984 174.655 59.1376Z" fill="#FF3F12"/>
<path fill-rule="evenodd" clip-rule="evenodd" d="M182.754 59.1387C183.16 59.1387 183.566 59.1387 183.969 59.1387C183.798 59.9229 183.824 60.906 182.754 60.7819C182.754 60.2346 182.754 59.6845 182.754 59.1387Z" fill="#FF3F12"/>
<path fill-rule="evenodd" clip-rule="evenodd" d="M185.185 59.5479C186.138 59.6762 185.425 61.4929 186.807 61.191C186.105 63.1206 185.02 60.9202 185.185 59.5479Z" fill="#FF3F12"/>
<path fill-rule="evenodd" clip-rule="evenodd" d="M170.606 62.0106C171.294 61.8611 171.369 62.3308 171.415 62.8329C171.887 62.8978 172.138 62.7413 172.227 62.4225C172.571 62.3463 172.608 62.5819 172.631 62.8329C172.631 63.1052 172.631 63.3788 172.631 63.6538C171.657 63.8217 171.75 62.9035 170.606 63.242C170.606 62.8329 170.606 62.4225 170.606 62.0106Z" fill="#FF3F12"/>
<path fill-rule="evenodd" clip-rule="evenodd" d="M172.226 64.8844C173.331 64.5854 173.041 65.7011 173.845 65.7053C173.969 66.6531 172.676 66.1623 172.63 66.938C171.601 66.8971 171.676 65.4077 172.226 64.8844Z" fill="#FF3F12"/>
<path fill-rule="evenodd" clip-rule="evenodd" d="M174.656 66.5273C174.482 67.3102 173.784 67.5584 173.846 68.581C173.922 68.9124 174.251 68.99 174.251 69.4033C175.497 69.7093 174.744 67.9872 176.275 68.581C176.511 69.9139 176 70.4922 175.87 71.4555C174.155 70.5838 170.933 72.66 170.606 69.4019C171.866 69.5768 171.616 67.8363 172.227 67.3482C172.892 66.8179 173.991 67.0704 174.656 66.5273ZM171.822 69.8137C172.584 70.1522 173.926 71.3286 174.251 69.8137C173.15 69.8151 172.354 68.0873 171.822 69.8137Z" fill="#FF3F12"/>
<path fill-rule="evenodd" clip-rule="evenodd" d="M194.499 67.7583C195.384 67.819 195.367 68.7922 195.309 69.8119C194.29 69.7132 193.632 68.6018 194.499 67.7583Z" fill="#FF3F12"/>
<path fill-rule="evenodd" clip-rule="evenodd" d="M39.3984 70.2212C39.9376 70.2212 40.4796 70.2212 41.0174 70.2212C40.1367 71.0802 41.2193 71.3933 41.0174 72.6867C40.2891 72.6345 40.1635 73.1888 39.3984 73.0971C39.3984 72.1366 39.3984 71.1803 39.3984 70.2212Z" fill="#FF3F12"/>
<path fill-rule="evenodd" clip-rule="evenodd" d="M178.705 70.6328C179.898 71.2252 178.221 72.2873 177.085 71.8641C176.437 70.2492 178.834 71.7231 178.705 70.6328Z" fill="#FF3F12"/>
<path fill-rule="evenodd" clip-rule="evenodd" d="M181.945 72.275C181.655 71.1594 183.855 72.5698 183.564 71.4556C184.115 71.5825 183.9 72.4838 183.97 73.0988C182.679 73.4486 182.718 72.4528 181.945 72.2765V72.275Z" fill="#FF3F12"/>
<path fill-rule="evenodd" clip-rule="evenodd" d="M179.92 72.686C180.713 73.1571 182.119 75.5648 179.92 75.5591C179.92 74.6029 179.92 73.6423 179.92 72.686Z" fill="#FF3F12"/>
<path fill-rule="evenodd" clip-rule="evenodd" d="M182.754 75.5625C184.384 76.5921 181.19 78.3016 181.54 75.9729C182.113 76.0082 182.686 76.0421 182.754 75.5625Z" fill="#FF3F12"/>
<path fill-rule="evenodd" clip-rule="evenodd" d="M43.0426 75.9715C44.9877 75.6682 44.7308 77.2987 45.0681 77.6147C44.4287 78.6316 42.8916 77.1154 43.0426 75.9715Z" fill="#FF3F12"/>
<path fill-rule="evenodd" clip-rule="evenodd" d="M40.6149 76.7888C40.6149 77.2007 40.6149 77.6111 40.6149 78.023C39.8965 77.9299 38.5852 78.4349 38.9959 77.2021C39.3531 76.8833 39.9092 76.7592 40.6149 76.7903V76.7888Z" fill="#FF3F12"/>
<path fill-rule="evenodd" clip-rule="evenodd" d="M187.211 80.0775C188.089 80.0084 187.393 81.5331 187.615 82.1297C186.548 82.2566 186.572 81.2735 186.399 80.4865C186.871 80.5528 187.121 80.3962 187.211 80.0775Z" fill="#FF3F12"/>
<path fill-rule="evenodd" clip-rule="evenodd" d="M172.629 80.8999C173.569 81.0424 174.529 81.1651 174.249 82.5431C173.219 82.4923 172.678 81.9451 172.629 80.8999Z" fill="#FF3F12"/>
<path fill-rule="evenodd" clip-rule="evenodd" d="M175.466 81.7206C176.625 81.6388 177.677 81.6684 177.49 82.9505C176.42 82.942 174.952 83.3342 175.466 81.7206Z" fill="#FF3F12"/>
<path fill-rule="evenodd" clip-rule="evenodd" d="M168.985 87.4658C168.937 87.0511 170.176 86.8889 170.2 86.6463C170.241 86.2119 169.287 86.3571 169.39 85.8226C169.542 85.0454 169.945 85.2457 170.2 84.1822C171.154 84.1737 171.391 84.8874 172.629 84.5927C172.693 85.7422 171.486 85.9312 171.01 85.4135C170.841 86.9199 170.266 87.5194 171.822 87.8776C171.317 89.6068 169.754 87.8931 168.986 87.4658H168.985Z" fill="#FF3F12"/>
<path fill-rule="evenodd" clip-rule="evenodd" d="M193.691 84.5933C194.593 84.7724 195.133 85.3196 195.308 86.2364C194.161 86.2759 192.631 88.0249 192.069 86.2364C191.77 84.8373 193.561 85.5594 193.689 84.5933H193.691Z" fill="#FF3F12"/>
<path fill-rule="evenodd" clip-rule="evenodd" d="M49.9276 87.0558C51.0342 86.7568 50.7448 87.8724 51.5465 87.8781C51.4463 88.3238 50.7406 88.1574 50.7378 88.6976C50.0235 88.5988 49.8132 87.9938 49.9261 87.0544L49.9276 87.0558Z" fill="#FF3F12"/>
<path fill-rule="evenodd" clip-rule="evenodd" d="M179.921 87.8813C180.498 88.3863 180.687 89.2932 180.73 90.3454C179.533 90.3581 179.356 88.4441 179.921 87.8813Z" fill="#FF3F12"/>
<path fill-rule="evenodd" clip-rule="evenodd" d="M48.3074 90.7521C49.2066 91.7027 49.8869 90.6139 51.1417 90.7521C50.6435 92.0271 49.4098 92.5547 47.9023 92.8057C46.9115 91.8381 48.5065 92.0427 48.3074 90.7521Z" fill="#FF3F12"/>
<path fill-rule="evenodd" clip-rule="evenodd" d="M188.83 91.5761C190.351 91.6213 189.108 93.4295 190.854 92.3956C191.483 93.8554 189.477 92.6452 189.637 93.6283C189.036 93.2785 189.053 92.3039 188.828 91.5747L188.83 91.5761Z" fill="#FF3F12"/>
<path fill-rule="evenodd" clip-rule="evenodd" d="M167.77 93.2173C169.743 93.9973 166.82 94.3358 167.364 96.0918C166.108 96.1327 165.428 95.5897 164.529 95.2709C164.406 94.773 165.7 93.8548 165.744 94.8605C166.486 94.3809 167.117 93.7871 167.77 93.2173Z" fill="#FF3F12"/>
<path fill-rule="evenodd" clip-rule="evenodd" d="M47.4967 93.6301C48.5638 93.506 48.8263 94.1971 48.7134 95.2719C47.6223 95.2437 46.7655 94.3325 47.4967 93.6301Z" fill="#FF3F12"/>
<path fill-rule="evenodd" clip-rule="evenodd" d="M53.1665 97.3227C52.6259 98.4905 51.3654 97.0067 50.7373 96.9136C51.4035 95.5864 52.4523 96.8375 53.1665 97.3227Z" fill="#FF3F12"/>
<path fill-rule="evenodd" clip-rule="evenodd" d="M55.999 96.5008C55.6602 96.9761 55.4654 97.6023 55.5953 98.5544C55.0561 98.5544 54.5141 98.5544 53.9777 98.5544C53.8817 97.0918 54.5578 96.4063 55.999 96.5008Z" fill="#FF3F12"/>
<path fill-rule="evenodd" clip-rule="evenodd" d="M195.308 96.5029C194.975 97.6623 195.88 97.5664 195.715 98.5566C194.57 98.6214 194.769 97.321 193.69 97.3224C193.956 96.7723 194.554 96.5593 195.308 96.5029Z" fill="#FF3F12"/>
<path fill-rule="evenodd" clip-rule="evenodd" d="M50.3302 97.7317C51.6923 97.31 50.9611 99.011 51.1404 99.7854C49.9603 99.8474 49.9095 98.121 50.3302 97.7317Z" fill="#FF3F12"/>
<path fill-rule="evenodd" clip-rule="evenodd" d="M162.911 99.7852C164.088 100.142 163.365 100.402 163.316 101.428C162.469 101.602 162.244 101.146 161.695 101.018C161.74 100.242 163.033 100.733 162.911 99.7866V99.7852Z" fill="#FF3F12"/>
<path fill-rule="evenodd" clip-rule="evenodd" d="M172.226 99.7852C173.596 100.259 172.862 100.6 174.655 100.196C174.541 101.268 174.802 101.963 175.869 101.839C174.996 103.938 174.23 101.812 173.44 101.018C172.879 100.457 171.606 100.83 172.226 99.7866V99.7852Z" fill="#FF3F12"/>
<path fill-rule="evenodd" clip-rule="evenodd" d="M170.607 101.019C171.825 100.606 171.324 101.933 171.416 102.661C172.215 101.901 174.4 102.051 173.846 103.894C172.366 103.803 172.292 103.329 171.011 103.894C170.97 102.734 169.485 102.15 170.607 101.019Z" fill="#FF3F12"/>
<path fill-rule="evenodd" clip-rule="evenodd" d="M52.3554 102.25C53.3858 102.301 53.9264 102.847 53.9758 103.893C53.5043 104.239 52.8889 104.435 51.9503 104.302C51.8218 103.35 52.0138 102.727 52.3554 102.25Z" fill="#FF3F12"/>
<path fill-rule="evenodd" clip-rule="evenodd" d="M59.2429 102.661C60.9395 103.62 60.4949 102.977 62.4823 102.661C62.2832 103.829 61.2147 104.115 60.0531 104.304C60.2493 105.239 60.8562 106.403 60.0531 107.18C59.1723 105.835 58.7107 104.447 59.2429 102.661Z" fill="#FF3F12"/>
<path fill-rule="evenodd" clip-rule="evenodd" d="M63.6943 102.661C64.681 102.892 65.7763 103.014 65.7198 104.304C64.9534 103.847 63.8581 103.727 63.6943 102.661Z" fill="#FF3F12"/>
<path fill-rule="evenodd" clip-rule="evenodd" d="M162.911 102.661C163.765 102.373 163.462 103.161 163.723 103.483C164.262 104.153 165.33 104.42 165.343 105.537C163.74 106.066 164.516 104.184 162.913 104.713C162.913 104.029 162.913 103.346 162.913 102.659L162.911 102.661Z" fill="#FF3F12"/>
<path fill-rule="evenodd" clip-rule="evenodd" d="M169.39 104.302C169.946 103.331 172.527 105.137 171.414 105.945C169.895 106.254 170.532 104.378 169.39 104.302Z" fill="#FF3F12"/>
<path fill-rule="evenodd" clip-rule="evenodd" d="M63.6938 104.713C64.0524 105.032 64.6085 105.156 65.3128 105.125C65.1336 106.955 64.4589 105.734 63.2887 106.355C63.1165 105.497 63.5668 105.267 63.6938 104.711V104.713Z" fill="#FF3F12"/>
<path fill-rule="evenodd" clip-rule="evenodd" d="M58.0243 105.125C59.6884 104.936 57.8605 106.001 58.4294 107.179C57.1393 107.528 57.176 106.53 56.4053 106.355C56.6339 105.501 57.0376 105.485 57.6192 105.944C58.013 105.933 57.9339 105.444 58.0243 105.125Z" fill="#FF3F12"/>
<path fill-rule="evenodd" clip-rule="evenodd" d="M169.389 105.945C170.134 106.369 169.204 106.743 169.389 107.179C169.414 107.235 170.195 107.78 170.199 107.588C170.169 108.554 168.33 109.286 169.389 110.464C168.981 111.618 167.67 110.35 166.96 110.464C167.327 109.736 167.866 109.192 168.579 108.819C168.405 108.176 167.306 108.469 167.769 107.179C167.643 106.471 166.364 107.712 166.553 105.945C167.728 105.286 167.603 106.704 169.388 105.945H169.389Z" fill="#FF3F12"/>
<path fill-rule="evenodd" clip-rule="evenodd" d="M160.077 105.945C160.808 106.649 159.951 107.56 158.859 107.588C158.744 106.516 159.008 105.822 160.077 105.945Z" fill="#FF3F12"/>
<path fill-rule="evenodd" clip-rule="evenodd" d="M174.25 105.944C175.318 105.82 175.294 106.8 175.465 107.587C174.016 107.923 173.455 106.713 174.25 105.944Z" fill="#FF3F12"/>
<path fill-rule="evenodd" clip-rule="evenodd" d="M164.53 108.409C164.057 108.341 164.191 107.66 164.125 107.179C163.243 107.104 162.839 107.513 162.911 108.409C160.289 106.262 166.184 105.76 164.53 108.409Z" fill="#FF3F12"/>
<path fill-rule="evenodd" clip-rule="evenodd" d="M60.051 107.587C61.5923 107.281 60.9247 110.245 59.6444 109.64C59.516 108.688 59.7094 108.065 60.051 107.587Z" fill="#FF3F12"/>
<path fill-rule="evenodd" clip-rule="evenodd" d="M171.416 107.587C171.958 107.587 172.497 107.587 173.038 107.587C172.823 107.917 172.614 108.253 172.631 108.819C172.228 108.819 171.823 108.819 171.416 108.819C171.416 108.408 171.416 107.998 171.416 107.587Z" fill="#FF3F12"/>
<path fill-rule="evenodd" clip-rule="evenodd" d="M162.103 109.228C162.708 107.873 163.091 110.083 164.125 109.64C164.55 111.059 162.275 111.825 163.722 112.923C162.847 114.694 162.242 110.669 161.696 112.104C160.103 111.242 163.763 110.156 162.103 109.228Z" fill="#FF3F12"/>
<path fill-rule="evenodd" clip-rule="evenodd" d="M183.159 108.82C183.692 108.965 183.797 109.542 184.375 109.641C184.277 110.363 183.677 110.576 182.754 110.464C182.704 109.725 183.25 109.596 183.161 108.82H183.159Z" fill="#FF3F12"/>
<path fill-rule="evenodd" clip-rule="evenodd" d="M58.4302 110.05C59.1557 109.934 59.2616 110.438 58.8367 110.462C59.1995 111.187 60.4797 110.984 60.052 112.514C58.999 111.989 58.8297 111.613 57.6214 112.104C57.0371 110.552 58.7351 111.314 58.4316 110.05H58.4302Z" fill="#FF3F12"/>
<path fill-rule="evenodd" clip-rule="evenodd" d="M62.8833 110.872C64.9765 110.553 64.6618 113.116 63.6935 113.747C63.0682 113.149 62.8438 112.144 62.8833 110.872Z" fill="#FF3F12"/>
<path fill-rule="evenodd" clip-rule="evenodd" d="M164.529 114.159C164.159 114.877 163.777 115.585 162.505 115.391C162.447 114.235 163.497 114.206 164.529 114.159Z" fill="#FF3F12"/>
<path fill-rule="evenodd" clip-rule="evenodd" d="M77.0594 114.567C77.7581 114.815 77.027 116.515 77.8682 116.621C77.0185 118.103 76.5612 115.804 75.8456 115.801C75.0636 115.965 75.8089 117.68 74.2266 117.032C74.3776 115.408 75.5011 114.767 77.0609 114.568L77.0594 114.567Z" fill="#FF3F12"/>
<path fill-rule="evenodd" clip-rule="evenodd" d="M70.1765 114.977C71.0389 115.359 70.7312 117.963 69.3663 117.441C69.259 116.239 70.2824 116.18 70.1765 114.977Z" fill="#FF3F12"/>
<path fill-rule="evenodd" clip-rule="evenodd" d="M155.62 115.39C155.583 116.51 156.296 116.217 155.62 117.032C155.295 116.816 154.962 116.603 154.404 116.621C154.404 116.348 154.404 116.074 154.404 115.802C154.732 115.585 155.062 115.372 155.62 115.392V115.39Z" fill="#FF3F12"/>
<path fill-rule="evenodd" clip-rule="evenodd" d="M166.962 115.802C166.823 116.754 166.7 117.725 165.343 117.444C165.154 116.158 165.695 115.613 166.962 115.802Z" fill="#FF3F12"/>
<path fill-rule="evenodd" clip-rule="evenodd" d="M158.457 117.032C159.721 117.257 159.079 119.414 159.673 120.317C158.809 120.508 158.902 119.73 158.861 119.084C158.322 119.084 157.781 119.084 157.242 119.084C157.255 118.685 157.739 118.767 158.054 118.673C158.601 118.545 158.39 117.647 158.459 117.03L158.457 117.032Z" fill="#FF3F12"/>
<path fill-rule="evenodd" clip-rule="evenodd" d="M79.4905 117.441C81.9367 117.98 78.7439 119.568 80.7044 120.316C80.5774 120.872 79.691 120.656 79.084 120.726C80.0481 119.925 78.343 118.429 79.4905 117.441Z" fill="#FF3F12"/>
<path fill-rule="evenodd" clip-rule="evenodd" d="M75.4406 117.855C76.7604 117.746 77.3885 118.342 77.4647 119.495C77.1034 119.178 76.5515 119.054 75.8457 119.086C75.411 120.619 76.8507 120.256 76.6545 121.549C75.658 121.605 74.7052 121.611 74.2267 121.14C73.5464 118.944 75.4378 119.36 75.4421 117.855H75.4406Z" fill="#FF3F12"/>
<path fill-rule="evenodd" clip-rule="evenodd" d="M175.868 121.139C177.115 121.426 176.648 121.426 177.894 121.139C177.893 122.388 175.517 122.837 175.868 121.139Z" fill="#FF3F12"/>
<path fill-rule="evenodd" clip-rule="evenodd" d="M62.4822 123.19C64.4287 123.729 63.3644 126.024 61.6706 126.066C61.2712 124.427 62.8831 124.829 62.4822 123.19Z" fill="#FF3F12"/>
<path fill-rule="evenodd" clip-rule="evenodd" d="M99.3323 128.528C98.0295 128.456 96.8353 126.161 95.6864 127.296C94.6828 126.808 95.6779 124.292 94.0674 124.423C94.241 123.028 96.7083 123.468 96.0915 125.243C97.8742 124.464 98.8721 126.739 99.3323 128.529V128.528Z" fill="#FF3F12"/>
<path fill-rule="evenodd" clip-rule="evenodd" d="M132.134 123.601C132.02 124.676 132.284 125.367 133.351 125.244C133.238 126.089 132.268 126.065 131.732 126.477C132.337 127.358 132.72 126.183 133.756 126.887C134.032 128.264 133.075 128.388 132.135 128.53C132.491 127.212 131.087 127.679 130.92 126.887C130.594 127.105 130.264 127.316 129.706 127.298C129.506 128.588 130.59 128.904 129.706 129.76C128.295 129.275 129.476 126.162 126.87 126.887C125.953 127.325 128.035 128.133 127.682 129.351C126.537 129.69 126.632 128.772 125.657 128.941C126.773 127.846 125.36 127.501 125.25 126.477C126.554 126.567 126.964 125.752 128.489 126.068C130.152 125.286 128.931 123.292 132.134 123.602V123.601Z" fill="#FF3F12"/>
<path fill-rule="evenodd" clip-rule="evenodd" d="M150.357 124.424C151.01 124.307 151.053 124.811 151.572 124.833C151.219 125.433 151.252 126.423 149.953 126.068C150.268 125.701 150.389 125.139 150.358 124.424H150.357Z" fill="#FF3F12"/>
<path fill-rule="evenodd" clip-rule="evenodd" d="M93.2555 125.242C93.9697 125.341 94.1801 125.95 94.0671 126.885C93.662 126.885 93.2555 126.885 92.8518 126.885C92.681 126.026 93.1285 125.798 93.2555 125.242Z" fill="#FF3F12"/>
<path fill-rule="evenodd" clip-rule="evenodd" d="M155.22 125.652C156.363 125.314 156.268 126.231 157.242 126.064C157.55 127.915 154.539 127.6 155.22 125.652Z" fill="#FF3F12"/>
<path fill-rule="evenodd" clip-rule="evenodd" d="M160.484 125.653C161.446 126.525 160.707 129.143 159.268 128.94C157.889 127.333 160.308 126.952 160.484 125.653Z" fill="#FF3F12"/>
<path fill-rule="evenodd" clip-rule="evenodd" d="M134.564 127.709C134.97 127.709 135.375 127.709 135.778 127.709C135.843 129.008 134.703 129.081 134.968 130.582C133.907 130.036 134.195 128.76 134.563 127.709H134.564Z" fill="#FF3F12"/>
<path fill-rule="evenodd" clip-rule="evenodd" d="M92.0434 128.529C92.1888 129.951 92.9933 131.197 90.8281 130.993C91.4139 129.439 89.7158 130.203 90.0165 128.939C90.9918 129.107 90.8958 128.189 92.042 128.529H92.0434Z" fill="#FF3F12"/>
<path fill-rule="evenodd" clip-rule="evenodd" d="M140.639 129.349C141.998 128.926 141.27 130.626 141.449 131.403C140.399 130.874 140.175 130.552 140.639 129.349Z" fill="#FF3F12"/>
<path fill-rule="evenodd" clip-rule="evenodd" d="M160.889 129.353C161.827 129.221 162.444 129.418 162.913 129.762C162.958 131.476 162.121 131.999 160.889 131.407C160.889 130.721 160.889 130.036 160.889 129.353Z" fill="#FF3F12"/>
<path fill-rule="evenodd" clip-rule="evenodd" d="M144.689 130.17C146.362 130.678 144.536 131.363 144.284 132.224C143.701 132.129 144.143 130.998 143.474 130.991C143.565 130.4 144.682 130.846 144.689 130.17Z" fill="#FF3F12"/>
<path fill-rule="evenodd" clip-rule="evenodd" d="M135.779 130.58C136.1 131.623 138.261 130.804 138.21 132.224C136.704 131.377 137.149 132.811 135.374 132.633C134.924 131.344 135.184 131.549 135.779 130.58Z" fill="#FF3F12"/>
<path fill-rule="evenodd" clip-rule="evenodd" d="M107.836 130.991C108.272 132.053 109.859 131.949 109.455 133.864C108.781 133.864 108.106 133.864 107.431 133.864C108.175 133.285 106.796 131.87 107.836 130.991Z" fill="#FF3F12"/>
<path fill-rule="evenodd" clip-rule="evenodd" d="M130.11 131.405C129.859 132.382 128.343 132.079 128.894 133.867C128.569 133.65 128.236 133.44 127.68 133.457C127.932 132.206 128.579 131.358 130.11 131.405Z" fill="#FF3F12"/>
<path fill-rule="evenodd" clip-rule="evenodd" d="M127.276 133.455C128.161 135.577 126.592 135.521 126.869 137.972C125.551 137.943 126.007 136.111 125.657 135.098C125.599 133.788 124.158 133.879 124.036 132.634C125.688 132.328 125.431 133.958 127.277 133.455H127.276Z" fill="#FF3F12"/>
<path fill-rule="evenodd" clip-rule="evenodd" d="M94.067 135.099C95.2852 134.686 94.7841 136.014 94.8772 136.741C94.338 136.741 93.7989 136.741 93.2568 136.741C93.2625 135.926 94.3635 136.219 94.0684 135.099H94.067Z" fill="#FF3F12"/>
<path fill-rule="evenodd" clip-rule="evenodd" d="M150.358 137.151C149.86 138.398 148.965 136.705 147.929 137.151C148.253 135.635 149.596 136.811 150.358 137.151Z" fill="#FF3F12"/>
<path fill-rule="evenodd" clip-rule="evenodd" d="M167.367 136.74C168.451 136.893 169.266 138.923 167.367 138.793C167.367 138.111 167.367 137.427 167.367 136.74Z" fill="#FF3F12"/>
<path fill-rule="evenodd" clip-rule="evenodd" d="M138.614 137.149C139.664 137.458 140.271 139.454 139.426 140.433C138.815 139.461 138.81 138.918 137.4 139.613C137.985 138.975 138.253 138.014 138.614 137.149Z" fill="#FF3F12"/>
<path fill-rule="evenodd" clip-rule="evenodd" d="M154.001 137.149C155.294 136.797 155.253 137.795 156.025 137.969C156.073 139.796 155.679 141.177 153.597 140.843C152.664 139.778 153.608 138.126 154.001 137.147V137.149Z" fill="#FF3F12"/>
<path fill-rule="evenodd" clip-rule="evenodd" d="M131.508 138.904C133.463 139.409 134.143 141.416 133.533 143.421C132.216 142.954 131.461 141.134 131.508 138.904Z" fill="#FF3F12"/>
<path fill-rule="evenodd" clip-rule="evenodd" d="M188.53 140.548C189.635 141.224 190.931 141.249 191.719 143.024C190.152 143.952 189.586 141.397 188.53 140.548Z" fill="#FF3F12"/>
<path fill-rule="evenodd" clip-rule="evenodd" d="M46.6866 64.0645C45.7141 65.025 45.3118 61.9206 44.256 61.6018C42.9447 62.9587 45.2878 64.0941 45.0676 65.7063C45.1707 66.5596 46.8475 65.8191 47.0931 66.5272C47.1439 67.2634 46.5949 67.3946 46.6866 68.1689C45.8609 68.8855 45.8919 67.8629 45.0662 68.5808C44.0019 68.4595 44.7486 70.1746 43.4458 69.8135C42.5015 67.8925 42.3759 66.805 43.8523 65.7063C43.7874 65.2253 43.1141 65.3607 42.6356 65.2958C42.2686 63.2055 41.1055 61.9192 39.8027 60.7795C40.8162 60.3 41.3596 59.3465 43.0421 59.5468C43.5122 60.1533 43.5122 60.5807 43.0421 61.19C42.9673 61.5398 43.2002 61.5764 43.4472 61.6004C43.841 61.5877 43.7634 61.0969 43.8537 60.7795C45.6096 59.6187 45.8778 62.9516 46.688 64.0631L46.6866 64.0645Z" fill="#FF3F12"/>
<path fill-rule="evenodd" clip-rule="evenodd" d="M135.374 9.45242C134.383 10.42 135.978 10.2155 135.779 11.5061C136.191 11.2381 136.198 10.5596 136.994 10.6852C136.78 11.0152 136.572 11.3509 136.589 11.9165C138.07 12.2663 138.759 10.0265 139.425 11.9165C140.395 12.0801 139.199 10.0462 140.639 10.6852C140.536 12.224 140.002 13.3241 139.018 13.9687C139.956 14.8813 138.881 15.5696 139.018 16.8432C140.06 15.9674 140.752 13.0632 142.664 14.3792C142.056 14.8587 141.673 15.5654 140.64 15.6105C140.876 16.8743 142.366 16.8715 142.664 18.0746C143.047 17.1028 142.82 16.241 143.474 14.3792C144.276 14.6556 145.256 15.7445 143.88 16.0224C143.94 16.7826 145.252 16.2748 145.499 16.8432C145.101 17.5062 144.42 17.7883 143.88 17.2523C143.888 18.8884 144.266 20.1451 145.096 20.9477C144.831 21.3666 144.165 21.3722 144.285 22.1804C145.125 23.7813 145.935 20.5175 146.31 22.5909C146.704 22.5782 146.624 22.0874 146.715 21.7714C147.962 22.3173 145.96 23.5951 147.119 24.2341C148.629 24.6699 147.76 22.6939 149.143 23.0027C149.143 23.55 149.143 24.0973 149.143 24.6445C148.237 25.0945 147.116 25.3244 146.31 25.8759C147.278 25.8406 147.605 27.4922 147.929 27.519C149.104 27.6107 148.193 25.4118 149.548 26.2877C150.461 25.9816 149.706 23.983 149.953 23.0027C150.292 21.6967 150.488 23.7305 150.358 24.2341C150.766 25.0521 151.37 25.6727 151.979 26.2877C152.924 26.1608 153.65 25.4837 154.407 26.2877C154.042 28.8942 152.807 26.3117 151.167 26.6982C151.097 27.8632 152.535 27.4979 151.979 29.1608C153.399 28.8364 153.308 28.0085 154.407 29.1608C154.316 29.8195 153.345 29.3696 152.788 29.5713C152.536 29.6629 152.038 30.3851 151.979 30.395C151.678 30.4401 151.318 29.8237 150.761 29.9845C149.914 30.2257 150.652 31.1002 149.142 30.395C149.356 30.7236 149.567 31.0593 149.548 31.6249C150.555 31.5812 150.803 30.8548 151.574 31.6249C152.905 31.6066 152.543 29.8703 154.003 29.9831C153.249 31.426 154.312 31.3329 154.814 32.4458C155.852 32.4035 155.464 30.9168 156.028 30.3936C157.388 30.7673 156.23 31.1552 156.435 32.4458C156.586 33.2187 158.586 30.828 158.459 33.2667C157.194 33.2469 156.455 33.8309 156.028 33.6771C155.262 34.1003 155.937 36.8732 154.408 35.3203C155.16 37.625 157.388 33.7519 157.647 36.5531C159.647 36.2258 156.754 33.4783 159.268 33.6771C159.35 36.0382 158.668 37.2103 159.673 39.0157C159.543 39.9763 158.418 39.9339 158.054 40.6589C159.132 42.1159 159.854 39.7774 160.079 39.0157C162.274 40.2767 162.31 35.632 162.507 38.6053C163.32 37.3457 164.39 38.8987 164.531 36.9621C165.116 37.0538 164.672 38.1864 165.343 38.192C163.538 39.1892 163.035 39.1596 160.888 39.4248C161.022 40.3853 161.375 41.123 161.697 41.8888C163.628 41.2668 162.705 42.2203 164.531 42.2993C164.328 43.3247 163.454 43.6703 163.317 44.7634C163.491 45.4065 164.592 45.1132 164.128 46.4051C162.706 46.0807 162.798 45.25 161.698 46.4051C161.924 47.9849 163.265 46.0892 164.128 47.226C163.515 49.3502 161.502 46.7084 160.888 47.6365C160.345 47.9073 160.134 48.5138 160.079 49.2811C159.717 49.597 159.163 49.7226 158.459 49.6901C158.532 50.8467 160.384 50.2021 160.079 51.7438C160.929 52.3601 160.87 50.7719 161.293 50.5124C161.384 50.4574 162.791 51.0371 162.507 49.2825C163.618 49.2881 163.47 51.2191 162.912 51.7452C165.206 52.6817 163.971 49.7282 163.317 48.4602C165.799 48.2204 164.736 45.7902 164.531 43.9439C165.372 44.8325 165.912 43.9665 166.152 43.1216C166.462 44.0863 165.872 46.841 168.581 46.408C168.543 47.4517 167 47.4517 166.962 46.408C166.464 47.1344 166.174 48.0723 165.343 48.4616C165.519 49.0709 165.861 48.2994 166.557 48.4616C164.561 49.3206 166.277 51.0794 165.745 52.1584C166.509 52.6577 167.538 52.0442 167.366 54.2121C166.972 54.2008 167.052 53.7085 166.96 53.3898C166.528 54.1853 166.187 55.071 164.53 54.6211C164.538 55.9822 166.819 55.0386 167.366 55.8553C167.133 56.8496 164.746 55.6606 164.936 57.0866C163.708 57.1007 164.544 55.0188 163.316 55.033C162.07 55.5478 161.082 56.3249 160.887 57.9075C162.105 58.3207 161.605 56.9935 161.696 56.2643C163.906 55.8017 164.036 57.4505 165.341 57.9075C165.015 59.5902 163.674 57.6945 162.911 58.7284C162.988 59.0598 163.319 59.1374 163.316 59.5493C163.71 59.5394 163.631 59.0471 163.722 58.7284C164.198 58.7947 164.064 59.4759 164.126 59.9611C165.216 60.2446 164.908 59.112 165.343 58.7284C166.146 58.7326 165.857 59.8483 166.962 59.5493C167.257 60.6706 166.157 60.3758 166.152 61.1924C166.465 62.105 167.001 62.7933 166.962 64.0656C167.741 63.9005 167.281 62.4746 168.581 62.8356C168.865 64.6297 167.893 65.1474 168.176 66.9415C169.886 66.6862 169.665 66.0289 169.39 64.4774C170.773 64.1685 169.905 66.146 171.414 65.7087C170.69 66.4789 169.968 67.2532 169.39 68.1714C168.958 69.7074 170.395 69.3421 170.2 70.6355C169.627 69.847 168.234 69.8922 167.366 69.4056C166.979 70.1461 168.155 70.4183 168.176 70.6355C168.232 71.1969 166.361 72.4888 168.176 73.101C168.149 74.2068 167.25 75.0742 166.557 74.3309C166.744 75.2435 165.751 75.2985 166.557 76.3845C166.668 76.5355 167.298 76.6553 167.367 76.7936C167.896 77.8683 167.216 78.8514 168.986 78.0277C168.873 78.9629 169.083 79.5722 169.796 79.6709C169.165 80.8049 168.657 78.4001 166.962 79.2605C166.962 79.5341 166.962 79.8063 166.962 80.0814C167.086 80.6385 167.975 80.4213 168.581 80.4904C169.121 81.2831 168.465 81.8783 168.581 82.1336C168.839 82.6978 169.45 81.9883 170.2 82.9545C169.886 83.3198 169.766 83.8826 169.795 84.5977C167.308 83.3706 169.645 85.5441 167.366 85.4186C167.172 86.712 167.941 87.0237 168.176 87.8826C168.989 87.7416 169.443 87.9659 169.39 88.7021C167.956 88.5653 168.396 87.5737 166.96 88.2931C166.623 87.1873 166.434 85.2789 167.366 83.774C166.592 83.2253 165.917 83.8938 165.341 82.544C164.623 82.9108 164.823 84.2112 163.316 83.774C164.513 84.4806 165.456 85.4383 166.152 86.6499C166.058 87.2409 164.942 86.7923 164.938 87.4694C164.301 87.2945 164.592 86.1788 163.317 86.6499C163.656 86.1717 163.854 85.5483 163.724 84.5963C161.358 84.891 163.549 87.3128 162.912 88.2931C163.083 89.2155 165.061 88.3015 165.343 89.1126C164.859 89.279 163.955 89.736 162.912 90.3467C162.796 91.7473 165.684 91.1817 164.531 92.3989C165.711 92.0435 164.989 91.784 164.938 90.7558C165.406 90.8235 165.658 90.6655 165.747 90.3467C166.334 90.9842 167.093 91.4455 167.367 92.3989C167.899 91.8728 168.859 91.8728 169.391 92.3989C170.355 92.279 168.941 91.2889 168.581 91.1662C168.795 90.0167 170.532 90.4074 171.415 89.9363C170.39 91.1803 173.465 90.8982 172.63 93.2198C170.787 92.7403 169.582 93.3651 168.581 93.2198C168.526 93.2128 168.64 92.4187 168.581 92.3989C168.098 92.2339 166.84 93.3806 166.557 92.3989C165.302 92.4963 164.983 93.5414 164.126 94.0421C163.379 93.9801 163.878 92.6514 163.316 92.3989C162.802 92.492 162.787 93.6246 163.316 93.6317C163.49 94.1126 162.589 93.8461 162.506 94.0407C162.476 94.1141 162.597 96.7714 162.911 97.3243C163.148 97.7432 163.693 97.9209 164.125 98.1452C164.064 99.1663 162.753 98.2651 162.506 98.1452C161.919 98.6459 161.964 99.7855 160.887 99.7884C160.731 102.161 162.343 102.511 161.696 105.537C161.156 105.537 160.617 105.537 160.078 105.537C160.312 103.233 159.969 102.896 160.483 101.02C159.16 100.815 159.623 103.061 158.458 101.841C158.391 103.003 157.715 103.551 157.646 104.714C156.146 104.423 155.911 105.416 154.407 105.126C154.243 106.114 155.146 106.017 154.813 107.179C155.227 106.777 155.632 106.367 156.027 105.945C156.354 106.162 156.685 106.374 157.241 106.355C157.431 107.231 156.662 107.137 156.027 107.179C155.863 108.168 156.768 108.071 156.433 109.229C155.495 109.361 154.878 109.165 154.408 108.82C154.054 110.138 155.458 109.67 155.623 110.464C155.642 111.512 155.324 110.963 154.814 110.873C154.848 111.456 154.881 112.037 154.408 112.105C154.861 112.742 155.725 112.959 155.623 114.158C158.133 114.509 158.11 112.296 160.079 112.105C158.877 112.666 159.629 115.208 158.861 116.21C157.575 116.148 157.08 115.279 155.622 115.389C155.228 113.449 153.471 113.825 151.979 114.567C152.192 114.899 152.401 115.234 152.382 115.8C151.121 115.302 150.639 116.019 149.548 114.978C149.665 113.454 151.691 113.865 151.574 112.105C150.525 111.068 148.972 113.006 147.929 113.337C148.148 114.619 148.893 115.37 149.953 115.801C149.496 116.707 147.881 116.437 147.523 117.443C146.378 117.508 146.58 116.209 145.499 116.212C144.21 116.275 143.716 117.144 142.259 117.033C142.259 116.622 142.259 116.212 142.259 115.801C141.522 116.285 141.942 117.941 141.449 118.674C140.431 118.296 138.671 117.886 138.613 119.494C138.737 120.052 139.628 119.837 140.234 119.904C140.355 120.988 139.672 121.253 138.613 121.139C137.416 121.567 137.425 123.218 135.374 122.782C135.079 121.66 136.18 121.954 136.184 121.139C135.643 121.139 135.104 121.139 134.565 121.139C134.271 122.391 134.979 122.634 134.97 123.601C133.905 123.48 134.653 125.194 133.351 124.834C133.734 123.244 131.772 123.143 132.946 121.959C130.892 122.841 129.598 122.057 127.276 122.783C127.121 124.171 129.067 123.428 128.49 125.246C127.19 125.608 127.935 123.893 126.87 124.016C126.241 123.857 126.731 125.058 126.467 125.246C124.798 126.431 119.255 124.164 119.583 127.299C117.925 126.703 119.761 125.119 118.365 124.426C116.539 125.112 116.938 125.508 116.745 127.71C115.812 127.837 116.296 126.522 115.531 126.477C114.29 127.5 116.228 128.755 117.557 128.531C118.763 128.622 118.934 127.015 119.987 128.12C120.979 127.349 121.767 126.366 123.629 126.477C123.629 127.161 123.629 127.847 123.629 128.531C122.804 129.354 122.834 128.35 122.01 128.12C121.62 129.449 119.905 129.431 120.796 130.995C119.932 131.185 120.025 130.407 119.987 129.761C119.456 129.699 118.895 129.842 118.365 129.761C117.679 129.656 117.404 128.982 117.15 128.941C116.269 128.793 115.456 129.769 114.317 128.941C113.716 129.119 114.478 129.466 114.317 130.173C113.777 130.173 113.237 130.173 112.698 130.173C113.205 129.421 113.007 127.545 112.292 128.529C111.291 127.881 112.784 126.322 113.912 126.476C114.433 124.858 114.564 125.22 114.722 123.601C115.726 123.66 116.686 123.679 116.745 122.782C116.529 121.934 114.831 122.683 115.936 121.548C114.846 121.264 115.153 122.398 114.722 122.782C114.121 122.305 113.702 122.305 113.103 122.782C113.107 123.597 114.207 123.304 113.913 124.425C112.306 124.026 112.654 125.613 112.293 126.477C110.567 125.952 109.869 126.934 108.649 126.068C107.84 126.48 108.009 127.882 106.623 127.71C106.557 129.147 108.047 129 108.649 129.762C107.545 131.118 106.562 128.893 105.408 128.943C105.413 128.127 106.514 128.419 106.219 127.299C104.627 126.919 105.196 128.725 103.382 128.12C103.954 127.329 104.454 126.469 104.6 125.244C105.363 125.703 106.461 125.821 106.624 126.888C107.923 126.913 106.764 125.388 107.436 124.425C107.878 123.789 109.196 124.421 108.245 122.782C108.828 123.242 109.234 123.223 109.462 122.371C110.818 122.868 111.116 124.889 110.677 126.068C110.946 126.068 111.217 126.068 111.488 126.068C112.193 125.449 111.074 124.295 112.297 123.603C111.58 123.098 110.657 122.803 110.272 121.959C110.732 121.466 111.431 121.218 111.083 119.906C109.895 121.167 107.735 121.44 107.439 123.601C106.008 123.381 105.353 123.95 105.008 124.834C104.081 124.572 102.565 124.02 101.769 124.834C102.12 126.029 102.374 125.297 103.386 125.244C102.921 125.731 102.931 126.697 102.983 127.708C101.554 127.652 101.173 126.532 99.7434 126.476C99.4639 125.371 100.58 125.682 100.959 125.243C99.3242 125.397 99.2847 121.491 100.147 123.6C100.623 123.535 100.49 122.852 100.554 122.37C99.3101 120.562 98.1639 123.342 96.504 121.958C96.0396 122.105 95.4764 122.682 96.0989 122.782C95.5752 123.806 94.1355 122.346 94.4799 121.139C93.3959 120.762 93.9972 121.966 93.6697 122.37C93.4255 122.666 92.3302 122.46 92.8595 124.013C90.7804 123.912 92.3415 121.803 90.8354 121.548C90.2525 121.45 89.5764 122.357 89.6201 122.37C88.9257 122.161 88.7492 121.284 87.9983 121.139C87.1218 120.966 86.7943 121.966 85.5705 121.548C85.7512 119.814 88.2524 120.433 89.6201 119.904C89.3237 118.972 88.4006 118.677 87.5946 118.263C86.1013 118.254 85.8048 119.459 85.1654 120.316C84.2804 120.256 84.2945 119.282 84.3552 118.263C83.1766 118.619 83.8993 118.878 83.9501 119.904C82.5104 120.543 83.7031 118.511 82.7348 118.674C84.2254 118.195 83.8683 117.402 83.5436 115.801C84.9452 116.123 85.2544 115.344 85.9742 114.979C85.9333 114.188 84.4653 115.618 83.9501 114.569C83.4745 114.635 83.61 115.318 83.5436 115.801C82.1335 115.999 82.1307 114.772 81.5195 114.158C80.0996 114.271 82.5372 115.687 81.1158 115.801C81.1441 116.855 83.0016 116.387 81.9246 117.443C80.842 117.428 80.7107 115.023 79.9005 117.033C78.1517 115.703 78.4185 114.731 78.2801 112.106C76.8164 111.753 75.532 110.395 74.6342 111.695C74.9786 112.305 75.6548 112.577 76.6583 112.516C76.9914 114.086 74.7062 113 75.0408 114.569C74.095 114.569 73.1508 114.569 72.205 114.569C72.1458 113.278 73.2425 113.158 74.2306 112.925C73.4839 111.085 71.3864 110.604 70.9897 108.409C68.3404 108.619 71.7082 112.398 68.5606 112.105C68.3121 111.123 69.0673 109.127 68.1569 108.82C68.0312 107.873 69.3256 108.364 69.3708 107.588C68.7412 106.859 68.2317 106.007 66.5351 106.355C66.7341 104.417 66.9077 102.453 65.7277 101.018C64.5801 101.446 64.0395 101.447 62.892 101.018C62.892 100.336 62.892 99.6501 62.892 98.9646C61.6739 98.5514 62.1749 99.88 62.0818 100.608C59.7937 99.179 60.3216 102.752 58.4359 101.429C60.4444 100.605 58.9313 99.2594 58.4359 97.7319C57.4619 97.5655 57.5565 98.4823 56.4118 98.1424C57.253 96.1889 58.1013 95.942 56.8155 94.0365C56.09 93.9829 55.9629 94.5386 55.1965 94.4469C55.699 93.1183 53.8866 94.131 54.3849 92.8037C55.1019 92.0336 55.5691 93.2932 56.4104 92.3933C56.1521 90.9349 54.1364 92.5146 52.3608 91.9829C52.4709 91.1366 54.1534 91.8855 53.9812 90.7501C53.9191 89.8531 52.9578 89.87 51.9557 89.9306C53.7116 88.8051 51.3431 87.9038 52.3608 86.6457C50.6684 86.9912 50.4468 85.8473 49.1214 85.8219C49.1807 84.8064 49.1948 83.8318 48.3098 83.7683C48.3606 82.8642 50.0276 83.5948 50.7404 83.3593C51.5873 83.245 50.1518 82.2619 51.1441 81.7175C49.0452 81.9911 50.5047 82.812 48.3098 81.3056C48.0162 80.0503 49.0085 80.0997 48.7163 78.8416C47.7889 78.2731 46.5708 78.0052 45.4755 77.6102C46.1855 76.3958 47.6323 77.8472 48.7163 77.6102C48.7727 76.4565 47.724 76.4255 46.6908 76.3789C47.4262 75.3112 46.5158 75.1391 47.0973 73.9148C45.9526 73.8528 46.0796 75.077 45.4755 75.558C44.6201 75.1504 46.5228 72.7907 43.8565 73.5044C44.1501 72.2491 43.1578 72.297 43.45 71.0417C43.9257 70.4268 45.1339 70.5579 45.0704 69.3985C46.2179 69.328 45.8622 70.7878 47.4996 70.218C48.633 69.6905 46.225 69.3689 46.6908 68.1644C47.2836 67.5762 47.9738 67.8512 47.9047 68.9867C49.4023 68.3407 47.0154 65.8597 47.0959 64.0585C47.899 63.3758 47.6083 64.0952 48.7149 64.0585C48.187 62.8131 46.153 63.098 46.6894 60.7749C46.9971 59.9428 45.3993 60.4731 45.069 59.9541C44.925 59.727 46.496 57.6085 44.6625 57.9004C44.9419 56.6141 45.7451 57.3644 46.688 57.4914C46.966 56.387 45.8509 56.6973 45.4727 56.2586C46.0726 55.7734 46.1036 54.7085 46.688 54.2064C46.345 53.0019 45.3851 54.4533 44.6625 54.2064C44.7288 53.7297 44.5735 53.4744 44.2574 53.3841C44.191 52.4941 45.6943 53.1979 46.2829 52.9737C46.5313 50.9412 45.3654 50.3474 45.0676 48.8692C45.4628 48.8579 45.3809 48.3671 45.4727 48.0483C46.5525 48.0483 47.6308 48.0483 48.7135 48.0483C48.4453 46.5391 47.2187 46.0032 46.2829 45.1738C46.8856 43.7732 46.1629 41.917 45.8764 40.2471C46.5962 39.8803 46.9067 39.1018 48.307 39.4262C47.1269 41.2161 49.7269 41.1117 50.7376 40.2471C50.5724 39.3176 48.3634 40.4629 49.1186 38.6053C47.8412 39.0637 48.2011 38.642 46.688 38.6053C47.7791 37.5362 46.1911 37.3669 46.2829 36.1398C47.3711 35.8577 47.0648 36.9875 47.4968 37.3711C48.7685 37.5799 49.1539 36.4036 49.5223 37.7816C49.9711 36.4571 50.9606 35.6814 50.739 33.6757C52.1956 33.7857 52.6911 32.9169 53.9798 32.8548C53.9219 32.0904 53.7116 31.4824 53.1682 31.2116C53.7892 30.5741 53.5987 29.072 53.9798 28.3385C54.0362 28.2229 54.7265 28.4528 54.7886 28.3385C55.1584 27.6587 55.0934 25.3991 56.409 25.8744C55.802 27.4993 54.7561 28.2892 55.5988 30.3922C56.289 30.5431 56.3624 30.072 56.409 29.5684C56.9411 29.7151 57.047 30.2934 57.6228 30.3922C57.6906 29.3625 57.0018 29.1044 56.409 28.749C57.3363 28.0663 57.9207 27.6742 57.2177 26.2849C57.9108 26.3032 58.2665 25.9788 58.4331 25.464C59.6836 25.5627 59.1176 27.5078 60.8637 27.1044C58.8988 26.2031 59.9236 24.7954 58.8382 22.9999C59.3378 22.3158 59.5157 23.0916 60.0535 22.9999C60.4586 22.9294 60.6745 22.2171 60.8637 22.1776C61.057 22.1367 62.4629 22.6981 62.4826 21.3567C63.1362 21.9266 64.5688 21.7037 64.9118 22.5881C66.1144 22.4893 63.29 21.0605 64.9118 20.5344C65.0318 19.4568 63.3408 20.2128 63.6979 18.8912C64.1016 18.8912 64.5081 18.8912 64.9118 18.8912C65.1715 17.7854 66.4758 17.7389 66.5308 16.4286C67.6205 16.1465 67.3156 17.2777 67.7461 17.6613C67.533 16.1648 69.5176 16.0224 70.1767 14.3763C70.6496 14.4455 70.5169 15.1253 70.5818 15.6077C71.7068 15.7854 71.3426 14.4892 72.2008 14.3763C73.227 14.2424 73.1479 15.1211 74.2263 15.6077C74.5961 14.4215 73.1606 14.5766 73.011 13.9645C72.9193 13.6006 73.7492 13.1619 73.8226 12.7332C73.968 11.8601 72.8939 11.358 73.4161 10.2691C74.1289 10.6429 74.1571 11.7078 74.6314 12.3227C75.3315 11.5963 75.2144 11.3862 75.8481 11.5032C76.3421 11.5935 76.4268 9.81773 77.0634 11.0928C77.6069 10.822 77.8186 10.2141 77.8722 9.4496C78.9633 9.47781 79.8201 10.3904 79.0889 11.0928C80.4666 11.5681 81.9529 12.3862 83.5422 11.5032C83.0919 9.67527 84.6135 9.85017 84.7575 8.62871C85.7075 8.7345 84.9918 10.4327 84.7575 10.6823C84.8253 11.1633 85.4957 11.0279 85.9742 11.0928C85.4788 9.46935 86.0377 7.69075 83.9501 6.98552C85.7794 5.9446 88.354 7.02925 89.6201 6.98552C89.1063 9.14917 90.6703 9.20418 92.4544 9.03916C92.4544 8.76553 92.4544 8.49049 92.4544 8.21968C90.5672 7.76974 89.1035 5.75842 90.0238 3.70055C90.7733 4.90086 89.6441 5.37759 91.6428 6.16604C92.7791 5.76124 91.0556 5.0687 92.0493 4.52144C92.6224 4.55811 93.1955 4.58914 93.2618 4.11241C94.2146 5.33528 93.9351 5.25065 95.2873 4.52144C94.933 5.84164 96.3389 5.37336 96.5026 6.16604C96.9769 6.09693 96.8442 5.41568 96.9077 4.93189C98.1795 4.73865 97.9776 6.03769 98.9332 6.16604C99.6418 5.38182 100.448 4.6907 101.767 4.52144C101.767 3.83737 101.767 3.15188 101.767 2.46922C102.912 2.80773 102.816 1.88952 103.792 2.05877C104.181 2.71887 106.102 5.41144 106.626 3.2887C107.876 3.52707 108.132 4.7725 108.651 5.75278C109.752 6.04615 108.361 3.81621 109.462 4.111C109.056 3.42551 107.589 3.82044 107.437 2.87966C107.548 2.03339 108.945 2.49179 109.056 1.64551C109.658 1.9953 109.642 2.96993 109.867 3.69914C111.553 1.75976 113.267 4.57786 115.535 4.52003C115.844 2.97699 113.386 4.23794 113.918 2.46781C114.21 2.8035 116.719 3.56797 116.347 2.05736C116.674 2.13494 116.751 2.46922 117.156 2.46781C117.082 2.8176 117.314 2.85569 117.562 2.87825C117.47 3.46783 116.354 3.0193 116.347 3.69773C116.361 5.32682 117.911 5.40016 118.776 6.16322C120.284 4.97702 121.725 4.35501 123.231 4.10959C123.729 4.28731 124.061 4.63287 124.04 5.33951C125.55 5.02639 124.26 3.39307 122.824 3.69632C123.729 2.68784 124.696 3.04046 125.66 3.69632C124.7 5.34938 126.305 4.70621 126.472 6.16181C127.716 5.87267 127.248 5.87267 128.494 6.16181C128.198 6.54405 127.76 6.78241 127.28 6.98129C127.358 7.31275 127.687 7.39032 127.685 7.80218C128.933 8.10825 128.463 6.67522 129.71 6.98129C129.937 7.57368 130.34 7.98413 130.923 8.21545C129.921 9.94608 130.858 10.2916 130.518 11.499C131.018 12.0886 131.911 12.2748 132.949 12.3185C132.852 11.5977 132.253 11.3833 131.33 11.499C132.088 10.7162 131.374 10.4665 131.33 9.44537C132.085 9.11814 132.812 8.75847 133.759 8.62448C133.351 9.85863 134.661 9.35369 135.378 9.44537L135.374 9.45242ZM132.54 9.45242C132.418 10.5328 133.1 10.7994 134.159 10.6852C134.281 9.60193 133.598 9.33817 132.54 9.45242ZM77.0592 12.7374C76.5129 12.609 76.2857 12.1535 75.4402 12.3269C75.9356 14.571 77.2737 12.6485 78.2745 12.7374C78.3634 12.7459 78.362 14.0886 79.0847 13.5583C79.2131 12.6062 79.0198 11.9828 78.6796 11.5061C77.3796 11.1464 77.8398 12.571 77.0606 12.7374H77.0592ZM134.159 13.1492C135.082 13.2635 135.68 13.0491 135.778 12.3255C135.199 12.2282 135.096 11.6485 134.564 11.5061C134.437 12.0604 133.986 12.2903 134.159 13.1492ZM136.588 13.1492C137.257 13.1535 136.815 14.2861 137.398 14.3792C137.093 13.0787 139.75 12.7021 139.017 12.3255C137.762 12.8629 137.445 12.0039 136.588 13.1492ZM138.208 15.1986C138.389 14.5301 135.999 14.5301 136.183 15.1986C136.232 15.7854 138.402 16.8912 138.208 15.1986ZM149.14 29.9831C148.639 28.6545 150.452 29.6686 149.952 28.3399C148.789 28.9126 147.894 27.2214 147.521 28.3399C148.564 28.378 148.101 29.9422 149.14 29.9831ZM152.786 35.3203C153.057 35.3203 153.327 35.3203 153.598 35.3203C154.459 35.1863 153.53 33.5304 153.193 33.2667C153.355 34.2554 152.452 34.1595 152.786 35.3203ZM149.547 34.498C150.08 34.9183 151.04 34.9014 151.572 35.3203C151.733 34.0029 149.849 32.9761 149.547 34.498ZM156.026 39.0171C156.05 38.7661 156.088 38.5319 156.432 38.6067C156.361 39.6335 157.053 39.8916 157.645 40.2485C158.226 39.3119 159.472 38.1737 158.051 37.374C158.453 40.319 155.337 37.1426 156.026 39.0186V39.0171ZM158.86 42.3007C158.894 42.288 157.296 41.5771 158.051 43.1202C159.022 42.8719 159.897 42.532 161.29 42.7111C160.86 40.7859 159.34 42.1159 158.86 42.3007ZM160.885 44.7648C160.228 44.6421 159.793 45.3191 160.482 45.5857C160.877 44.6209 162.507 44.9044 162.504 43.532C160.583 43.1752 161.385 44.5349 160.885 44.7634V44.7648ZM158.86 47.6379C159.848 47.4066 160.945 47.2867 160.885 45.9947C159.566 45.8875 158.936 46.4827 158.86 47.6379ZM165.744 64.8836C165.653 64.1079 166.201 63.9781 166.15 63.2404C165.552 63.026 165.131 62.6339 164.53 62.421C164.709 63.4689 165.1 64.3082 165.745 64.8836H165.744ZM162.909 69.4013C163.756 70.2956 164.065 69.1954 165.34 69.4013C164.331 70.0248 165.799 72.723 166.554 71.455C165.627 70.7512 167.214 69.1404 166.959 67.7581C165.394 67.933 165.518 68.2067 164.528 67.3477C165.11 70.0191 163.289 67.706 162.909 69.4013ZM163.314 73.0968C163.443 72.5396 163.892 72.3097 163.721 71.4536C162.924 71.3294 162.918 72.0065 162.504 72.273C161.927 72.1743 161.823 71.5974 161.29 71.4536C161.031 72.9472 162.129 73.0657 163.314 73.0968ZM164.528 76.3803C163.8 74.2703 165.991 75.1222 166.149 73.9162C164.178 73.3224 161.957 76.0672 164.528 76.3803ZM164.528 81.7189C164.757 81.1279 165.161 80.7161 165.744 80.4848C164.856 78.9248 166.557 78.9276 166.555 77.2012C164.486 77.9036 164.502 80.7556 164.53 81.7189H164.528ZM159.265 80.4848C159.844 80.5835 159.948 81.1618 160.482 81.3056C160.82 80.8289 161.014 80.2055 160.885 79.2534C160.328 79.2703 159.996 79.0588 159.67 78.8416C159.762 79.6187 159.213 79.7457 159.265 80.4848ZM167.364 82.9488C167.364 82.2648 167.364 81.5793 167.364 80.8952C166.825 80.8952 166.284 80.8952 165.744 80.8952C165.639 82.2337 166.226 82.8727 167.364 82.9488ZM156.024 83.7683C158.259 84.1435 157.625 82.0476 156.024 82.1265C156.024 82.6738 156.024 83.2211 156.024 83.7683ZM159.67 85.4129C160.189 85.9771 162.091 86.128 162.101 85.0025C161.13 85.1647 162.325 83.1322 160.885 83.7683C161.241 85.0871 159.835 84.6216 159.67 85.4129ZM159.67 89.9306C159.67 90.7501 159.67 91.5738 159.67 92.3933C161.055 92.0858 160.184 94.0619 161.694 93.626C162.472 91.6063 160.349 92.5273 160.482 91.1606C160.771 89.98 163.769 90.1859 162.504 88.6965C161.052 88.5935 161.022 89.9306 159.67 89.9306ZM60.8594 94.4469C59.3279 95.0407 60.0817 93.3186 58.8339 93.626C58.3653 95.2495 60.7169 95.8066 60.8594 94.4469ZM59.6427 99.3737C60.1833 99.3737 60.7253 99.3737 61.2617 99.3737C61.2617 98.8278 61.2617 98.2806 61.2617 97.7305C60.323 97.8744 59.3646 97.9971 59.6427 99.3737ZM159.265 100.606C158.895 99.8871 159.127 98.5584 158.455 98.1424C157.585 99.0182 158.304 100.379 159.265 100.606ZM150.356 104.302C151.775 103.977 151.688 103.148 152.785 104.302C153.186 101.722 150.446 102.89 150.356 104.302ZM71.3878 107.587C72.1698 108.161 72.1641 109.539 73.4119 109.64C73.1663 108.659 72.8303 107.769 73.0082 106.355C71.9933 106.285 71.7393 106.989 71.3878 107.588V107.587ZM149.545 107.997C149.476 109.025 150.168 109.285 150.759 109.64C149.778 107.656 153.442 108.298 151.977 107.178C151.476 107.765 150.584 107.954 149.547 107.997H149.545ZM145.496 110.872C146.734 110.576 146.972 111.291 147.926 111.282C147.758 110.292 148.666 110.389 148.331 109.227C146.791 108.625 148.251 111.065 146.712 110.463C146.24 110.391 146.272 109.811 146.307 109.227C145.83 109.293 145.157 109.158 145.092 109.639C145.93 109.869 145.949 110.281 145.496 110.872ZM79.8921 112.515C81.4913 111.989 80.8731 113.712 81.9162 113.746C82.0912 112.963 82.7899 112.714 82.7278 111.693C81.5802 111.763 79.9499 111.34 79.8921 112.514V112.515ZM84.7505 117.442C85.7569 117.502 86.7167 117.518 86.776 116.621C85.9714 115.766 85.0455 116.607 84.7505 117.442ZM137.397 119.494C137.57 118.713 138.553 118.753 138.208 117.442C137.003 116.952 136.466 119.172 137.397 119.494ZM126.058 118.264C125.773 119.284 127.791 120.002 128.082 119.085C127.142 118.906 126.998 117.272 126.058 118.264ZM134.967 118.674C134.967 118.948 134.967 119.222 134.967 119.494C135.485 119.518 135.528 120.02 136.181 119.904C136.091 119.13 136.639 118.999 136.586 118.263C135.82 118.17 135.693 118.725 134.967 118.673V118.674ZM124.844 121.958C125.788 121.821 126.587 121.538 126.867 120.728C126.035 119.876 124.816 120.73 124.844 121.958ZM120.389 123.191C121.163 123.366 121.123 124.363 122.413 124.013C122.916 122.684 121.104 123.699 121.605 122.37C121.725 121.886 123.747 121.339 122.413 120.727C121.846 121.656 120.775 122.075 120.389 123.189V123.191ZM119.174 123.601C119.126 122.557 118.584 122.01 117.555 121.958C117.695 122.913 117.818 123.883 119.174 123.601Z" fill="#FF3F12"/>
<path fill-rule="evenodd" clip-rule="evenodd" d="M131.324 7.81293C131.324 7.40248 131.324 6.99204 131.324 6.58159C133.162 5.81289 131.873 8.2135 133.348 7.81293C133.004 9.01746 132.329 7.27977 131.324 7.81293Z" fill="#FF3F12"/>
<path fill-rule="evenodd" clip-rule="evenodd" d="M146.31 15.1997C146.499 14.3252 145.731 14.4183 145.095 14.3802C145.393 12.8555 147.278 13.8851 147.117 15.1997C145.817 14.9486 146.563 16.6793 145.498 15.6116C145.51 15.211 145.995 15.2928 146.31 15.1997Z" fill="#FF3F12"/>
<path fill-rule="evenodd" clip-rule="evenodd" d="M154.407 17.2534C156.298 18.1152 153.741 18.9572 153.6 19.7189C153.616 19.6117 153.598 22.8388 153.6 23.0038C153.602 23.8078 154.225 24.2577 154.003 25.0575C152.452 25.2592 151.859 24.4919 151.574 23.4129C151.934 23.7316 152.489 23.8543 153.194 23.8233C153.474 22.1702 151.488 22.8148 151.574 21.3606C151.934 21.0419 152.489 20.9192 153.194 20.9488C152.671 19.984 153.247 20.1857 152.788 18.8951C153.941 20.0715 154.221 18.2647 154.407 17.252V17.2534Z" fill="#FF3F12"/>
<path fill-rule="evenodd" clip-rule="evenodd" d="M147.521 21.362C147.588 20.8824 147.432 20.6286 147.116 20.5397C147.383 19.9868 147.983 19.7766 148.735 19.7202C149.194 20.4889 149.215 21.6991 150.759 21.3634C150.659 21.8091 149.958 21.6427 149.951 22.1843C149.557 21.4875 148.83 21.1307 147.52 21.3634L147.521 21.362Z" fill="#FF3F12"/>
<path fill-rule="evenodd" clip-rule="evenodd" d="M155.219 26.699C156.83 26.4606 157.883 27.7625 160.888 27.108C159.106 27.6285 158.696 29.5425 156.838 29.984C157.38 28.0432 154.307 27.6496 155.219 26.699Z" fill="#FF3F12"/>
<path fill-rule="evenodd" clip-rule="evenodd" d="M168.176 36.9658C169.023 36.7909 169.249 37.2451 169.795 37.3749C169.43 38.0914 168.889 38.956 168.176 38.1957C168.176 38.4694 168.176 38.7444 168.176 39.0195C166.989 38.6697 168.703 37.9856 168.176 36.9658Z" fill="#FF3F12"/>
<path fill-rule="evenodd" clip-rule="evenodd" d="M164.529 39.8376C163.623 38.8672 165.425 40.3496 165.341 41.0703C166.387 41.0336 165.766 39.3115 167.365 39.8376C167.248 40.09 166.357 41.4187 167.365 41.4807C166.749 43.2932 164.896 40.8065 164.124 41.8912C162.66 41.1465 164.84 40.7586 164.529 39.8376Z" fill="#FF3F12"/>
<path fill-rule="evenodd" clip-rule="evenodd" d="M44.6604 43.9449C44.8114 43.2453 44.3456 43.1706 43.8516 43.1226C43.9348 40.7925 46.3654 41.5076 45.8742 43.9449C45.0288 43.77 44.8029 44.2256 44.2553 44.354C43.6328 44.1367 44.2299 43.9266 44.6604 43.9449Z" fill="#FF3F12"/>
<path fill-rule="evenodd" clip-rule="evenodd" d="M177.492 55.0301C177.19 56.559 177.129 57.8101 178.707 58.3164C179.108 59.9526 177.496 59.5534 177.895 61.191C177.483 60.9244 177.476 60.2445 176.68 60.3701C177.448 58.937 176.718 58.3023 175.466 57.906C175.763 57.1754 176.203 57.8468 176.68 57.906C176.68 57.497 176.68 57.0851 176.68 56.6747C175.228 57.2163 175.198 56.6465 173.846 57.0851C173.846 56.5379 173.846 55.992 173.846 55.4433C174.944 56.9384 174.93 54.3911 175.87 54.2106C176.358 54.1175 176.568 54.7381 177.49 55.0301H177.492Z" fill="#FF3F12"/>
<path fill-rule="evenodd" clip-rule="evenodd" d="M176.679 63.243C177.026 63.9877 177.722 64.3756 177.894 65.2967C177.617 65.2106 177.174 64.6986 176.679 64.8862C176.579 64.9243 176.128 65.7057 176.274 65.7071C175.304 65.7 174.793 64.7593 173.439 64.4758C173.558 63.6394 174.536 63.6718 174.655 62.834C175.476 63.0963 174.92 64.7522 175.869 64.8862C176.618 64.8241 176.117 63.4955 176.679 63.243Z" fill="#FF3F12"/>
<path fill-rule="evenodd" clip-rule="evenodd" d="M186.806 66.526C186.942 67.6318 184.754 70.0931 184.781 67.3469C185.14 67.5303 185.507 67.708 185.592 68.1678C186.576 67.7559 184.797 66.3525 186.807 66.526H186.806Z" fill="#FF3F12"/>
<path fill-rule="evenodd" clip-rule="evenodd" d="M172.227 72.6874C171.96 73.2375 171.36 73.4519 170.607 73.5069C171.383 74.088 172.658 74.167 173.036 75.1501C174.048 75.2206 174.302 74.521 174.655 73.9188C175.699 73.954 175.081 75.6776 176.679 75.1501C176.669 75.5493 176.183 75.4675 175.869 75.5605C176.405 77.4703 174.524 76.9357 175.058 78.8441C173.6 78.1022 173.866 78.9189 172.628 79.256C172.851 78.4139 171.856 78.2757 171.819 78.8441C171.218 78.665 171.98 78.3194 171.819 77.6128C172.962 77.2743 172.868 78.1911 173.843 78.0232C174.343 76.696 172.533 77.7101 173.033 76.38C173.989 76.909 173.785 76.325 175.057 76.7891C174.7 76.0105 170.66 74.4265 171.007 76.7891C170.457 77.5874 170.529 74.2911 170.197 73.5055C170.78 72.9625 171.218 71.6268 172.223 72.686L172.227 72.6874Z" fill="#FF3F12"/>
<path fill-rule="evenodd" clip-rule="evenodd" d="M45.8742 84.1821C45.767 82.4797 46.4078 82.5841 45.8742 81.3076C45.5327 80.6997 44.5714 80.7124 43.8516 80.4867C44.4514 80.0015 44.4811 78.9366 45.0655 78.4331C47.0528 78.4627 44.1494 79.3711 45.4706 80.0777C46.2426 79.9028 46.2031 78.9042 47.4946 79.2568C46.7578 82.3768 47.5779 82.539 48.3049 85.4149C47.6598 83.3725 44.2171 86.2485 47.0924 86.2358C46.9653 86.7915 46.0747 86.5757 45.4706 86.6462C46.11 85.5108 44.419 84.8042 44.2553 85.8225C43.5156 85.5686 44.9554 84.1088 45.8742 84.1821Z" fill="#FF3F12"/>
<path fill-rule="evenodd" clip-rule="evenodd" d="M179.515 85.4166C181.027 84.9808 180.156 86.9555 181.541 86.6494C181.541 87.1952 181.541 87.7425 181.541 88.2926C180.998 88.0218 180.786 87.4139 180.731 86.6494C179.678 86.8962 179.273 86.483 179.515 85.4166Z" fill="#FF3F12"/>
<path fill-rule="evenodd" clip-rule="evenodd" d="M173.035 88.7004C173.028 87.8851 171.93 88.1799 172.225 87.0572C173.158 88.0107 173.529 86.2998 175.059 86.6482C174.498 87.9923 173.551 88.9529 172.225 89.5227C172.404 89.156 172.579 88.7864 173.035 88.7004Z" fill="#FF3F12"/>
<path fill-rule="evenodd" clip-rule="evenodd" d="M169.796 97.3212C169.145 98.0334 168.571 98.8163 166.962 98.5553C166.621 98.0786 166.428 97.4537 166.557 96.5017C166.709 97.4411 168.176 97.0489 168.581 97.7316C169.577 97.3748 169.488 95.9135 171.01 96.0912C170.204 95.2957 171.126 95.6328 171.414 95.2704C171.758 94.8416 171.135 93.685 172.225 94.0376C172.148 94.3691 171.819 94.4452 171.82 94.8585C171.994 95.5031 173.095 95.2083 172.629 96.5017C171.205 95.1053 171.656 97.9277 169.795 97.3212H169.796Z" fill="#FF3F12"/>
<path fill-rule="evenodd" clip-rule="evenodd" d="M167.367 99.3751C167.693 99.5923 168.023 99.8039 168.582 99.7856C168.472 100.633 166.79 99.8843 166.963 101.017C165.963 100.626 163.655 97.9731 166.153 97.7319C166.077 98.0648 165.745 98.141 165.747 98.5556C166.152 99.1029 166.842 99.3596 166.963 100.196C167.357 100.185 167.277 99.6939 167.368 99.3751H167.367Z" fill="#FF3F12"/>
<path fill-rule="evenodd" clip-rule="evenodd" d="M164.938 103.48C164.848 101.978 164.381 101.905 164.938 100.606C166.129 101.191 166.471 102.881 168.177 101.837C168.348 102.693 167.899 102.925 167.772 103.48C167.188 103.249 166.784 102.839 166.557 102.249C165.493 102.128 166.238 103.842 164.938 103.48Z" fill="#FF3F12"/>
<path fill-rule="evenodd" clip-rule="evenodd" d="M63.2903 107.997C64.3955 108.034 64.1061 107.314 64.9093 107.997C65.2989 109.254 62.9191 109.76 62.8852 109.227C61.7828 108.451 63.965 109.945 63.2903 107.997Z" fill="#FF3F12"/>
<path fill-rule="evenodd" clip-rule="evenodd" d="M169.795 112.924C169.972 112.317 170.315 113.086 171.011 112.924C170.587 114.275 170.12 115.58 168.176 115.389C167.615 113.697 171.405 114.319 169.795 112.924Z" fill="#FF3F12"/>
<path fill-rule="evenodd" clip-rule="evenodd" d="M149.955 118.263C148.985 118.101 150.178 120.133 148.738 119.493C149.372 118.023 148.231 116.886 150.358 116.62C149.809 119.689 152.059 116.668 152.382 116.62C153.345 116.479 153.895 118.749 155.218 117.441C155.018 118.738 157.225 117.593 156.837 119.084C155.132 118.016 155.136 119.741 153.598 119.903C152.58 119.181 153.311 119.226 152.786 118.261C149.804 119.754 148.779 123.229 145.497 124.421C146.368 123.333 145.071 121.812 144.687 120.724C143.498 121.074 145.213 121.755 144.687 122.778C143.973 122.405 143.432 121.859 143.068 121.135C142.468 121.895 140.975 121.749 141.044 123.187C141.168 123.895 142.448 122.652 142.258 124.421C141.603 124.537 141.559 124.032 141.044 124.01C140.509 125.919 142.388 125.383 141.854 127.295C141.694 128.279 143.699 127.068 143.069 128.527C141.558 128.49 141.915 128.067 140.64 128.527C141.219 127.301 140.308 127.13 141.045 126.064C140.097 124.864 138.27 126.233 137.804 126.884C137.931 127.442 138.818 127.223 139.426 127.294C139.549 128.242 138.255 127.75 138.211 128.525C138.164 129.94 139.876 129.573 139.83 130.989C138.582 131.277 139.049 131.277 137.804 130.989C137.69 130.327 138.188 130.281 138.211 129.755C136.784 129.012 136.359 127.255 135.78 125.649C135.84 124.734 136.801 126.184 137.804 125.649C138.245 125.548 138.08 124.833 138.615 124.829C138.438 124.221 138.097 124.989 137.401 124.829C137.399 123.458 138.719 123.427 138.615 121.954C139.762 122.239 142.62 120.323 141.45 119.49C142.328 117.979 142.351 120.72 143.474 120.314C143.863 119.003 143.656 117.978 145.095 117.029C146.101 117.091 145.21 118.419 145.095 118.672C144.971 119.166 145.757 118.871 145.904 119.082C146.002 119.223 145.774 119.802 145.904 119.902C146.239 120.161 146.783 120.115 147.119 120.314C148.169 120.929 147.836 121.188 149.143 120.314C149.952 119.773 151.051 119.661 149.955 118.26V118.263Z" fill="#FF3F12"/>
<path fill-rule="evenodd" clip-rule="evenodd" d="M153.195 124.833C154.821 125.266 153.141 126.501 153.6 128.119C152.659 127.988 152.045 128.184 151.575 128.529C150.488 129.494 151.935 128.298 151.981 128.119C152.31 126.797 151.356 126.462 152.79 126.067C153.249 125.938 153.144 125.363 153.196 124.833H153.195Z" fill="#FF3F12"/>
<path fill-rule="evenodd" clip-rule="evenodd" d="M109.052 136.329C110.196 135.99 110.1 136.909 111.077 136.738C110.881 137.411 107.729 139.909 107.838 137.56C109.102 138.009 109.131 137.979 109.052 136.328V136.329Z" fill="#FF3F12"/>
<path fill-rule="evenodd" clip-rule="evenodd" d="M11.3232 39.3131C10.5497 40.9493 9.20313 38.4739 6.57351 39.3131C6.16276 38.3061 7.23409 38.6305 7.67025 38.5825C8.85449 38.4542 10.9506 38.3738 11.3232 39.3131Z" fill="#FF3F12"/>
<path fill-rule="evenodd" clip-rule="evenodd" d="M18.2635 65.9606C18.2395 65.9578 18.2875 65.6027 18.2635 65.5957C20.2537 66.1677 15.5026 66.3649 14.9747 66.3241C15.0199 66.3269 12.8857 66.1536 15.7058 65.9592C16.3227 65.9169 17.2924 65.8183 18.2621 65.9592L18.2635 65.9606Z" fill="#FF3F12"/>
<path fill-rule="evenodd" clip-rule="evenodd" d="M0.362861 68.8799C0.906289 69.3115 1.99597 69.1972 1.82376 70.3411C0.680447 70.5104 0.193481 70.0238 0.362861 68.8799Z" fill="#FF3F12"/>
<path fill-rule="evenodd" clip-rule="evenodd" d="M31.0498 84.5776C31.4154 84.5776 31.781 84.5776 32.1465 84.5776C32.2496 85.5311 32.0124 86.1475 31.0498 86.0389C31.0498 85.5523 31.0498 85.0657 31.0498 84.5776Z" fill="#FF3F12"/>
<path fill-rule="evenodd" clip-rule="evenodd" d="M9.49766 89.688C10.0411 90.1182 11.1308 90.0025 10.96 91.1478C10.49 91.6499 9.37346 91.5103 8.40234 91.5131C8.73122 90.8685 9.28594 90.4468 9.49766 89.688Z" fill="#FF3F12"/>
<path fill-rule="evenodd" clip-rule="evenodd" d="M2.9218 112.32C2.41931 113.817 1.58088 113.078 0 113.051C0.503905 111.554 1.34092 112.291 2.9218 112.32Z" fill="#FF3F12"/>
<path fill-rule="evenodd" clip-rule="evenodd" d="M31.4146 134.586C31.6405 135.342 31.0123 135.097 30.6849 135.317C29.9255 135.823 29.8097 136.201 28.8584 135.317C29.2903 134.654 30.7625 135.029 31.4146 134.586Z" fill="#FF3F12"/>
<path fill-rule="evenodd" clip-rule="evenodd" d="M0.364258 144.446C0.656438 145.612 1.8181 145.911 2.19074 147C0.88369 146.846 0.433421 145.837 0.364258 144.446Z" fill="#FF3F12"/>
<path fill-rule="evenodd" clip-rule="evenodd" d="M10.2275 145.175C10.5592 144.517 12.3194 145.489 12.4196 146.271C12.054 146.271 11.6884 146.271 11.3243 146.271C11.5769 145.287 10.5691 145.564 10.2289 145.175H10.2275Z" fill="#FF3F12"/>
<path d="M49.2928 57.6055H28.8994V77.9838H49.2928V57.6055Z" fill="#FF3F12"/>
<path d="M63.4851 37.2266H43.0918V57.6049H63.4851V37.2266Z" fill="#FF3F12"/>
<path d="M67.365 76.9756H46.9717V97.354H67.365V76.9756Z" fill="#FF3F12"/>
<path d="M43.0926 26.6338H32.4922V37.2264H43.0926V26.6338Z" fill="#FF3F12"/>
<path d="M67.564 24.6987H54.749V37.5043H67.564V24.6987Z" fill="#FF3F12"/>
<path d="M65.4949 97.3545H54.8945V107.947H65.4949V97.3545Z" fill="#FF3F12"/>
<path d="M105.03 125.676C137.254 125.676 163.377 99.5718 163.377 67.3712C163.377 35.1706 137.254 9.06689 105.03 9.06689C72.8055 9.06689 46.6826 35.1706 46.6826 67.3712C46.6826 99.5718 72.8055 125.676 105.03 125.676Z" fill="#FF3F12"/>
<path d="M161.495 91.9722H144.984V108.47H161.495V91.9722Z" fill="#FF3F12"/>
<path d="M171.557 83.3828H155.967V93.9754H171.557V83.3828Z" fill="#FF3F12"/>
<path d="M184.022 63.3062H173.422V73.8987H184.022V63.3062Z" fill="#FF3F12"/>
<path d="M165.591 73.772H154.99V84.3645H165.591V73.772Z" fill="#FF3F12"/>
<path d="M149.74 106.963H139.14V117.556H149.74V106.963Z" fill="#FF3F12"/>
<path d="M79.8856 52.3479C79.856 52.4452 79.8235 52.5425 79.7868 52.6384C77.0203 59.9291 75.757 66.3199 75.589 71.8405C75.3604 79.3484 77.136 85.2328 79.8475 89.5432C82.4221 93.6349 85.8012 96.2781 89.0152 97.4954C90.2333 97.9566 91.3795 98.2034 92.3915 98.2345C92.6569 98.2429 92.2687 98.2232 92.7515 98.2232V98.2429C93.1834 98.2429 93.6195 98.2175 94.0585 98.1696H94.0656L94.2462 98.1484L94.2575 98.147L94.4565 98.1216L94.4862 98.1174C94.6669 98.092 94.8475 98.0624 95.0282 98.0285L95.0536 98.0229L95.2089 97.9933L95.254 97.9848L95.4502 97.9439L95.4531 97.9425L95.5716 97.9171L95.6323 97.903L95.6535 97.8974L95.693 97.8889L95.8144 97.8607L95.8553 97.8508L96.0487 97.8015L96.0572 97.8H96.0586L96.1193 97.7845L96.2407 97.7521L96.2576 97.7464L96.4228 97.6999L96.4581 97.69L96.4835 97.683L96.6048 97.6463C99.5492 96.7591 102.484 94.9297 105.037 92.4685L105.048 92.4572L105.06 92.4459L105.068 92.4375L105.071 92.4346L105.082 92.4234L105.094 92.4121L105.105 92.4008L105.116 92.3895L105.127 92.3782L105.139 92.3669L105.15 92.3557L105.161 92.3444L105.184 92.3218L105.195 92.3105L105.207 92.2992L105.218 92.2879L105.229 92.2767L105.24 92.2654L105.242 92.264L105.252 92.2541L105.263 92.2428L105.274 92.2315L105.286 92.2202L105.297 92.209L105.308 92.1977L105.319 92.1864L105.331 92.1751L105.342 92.1638L105.353 92.1525L105.365 92.1413L105.376 92.13L105.387 92.1187L105.398 92.1074L105.41 92.0961L105.414 92.0919L105.421 92.0848L105.432 92.0736L105.444 92.0623L105.455 92.051L105.466 92.0397L105.478 92.0284L105.489 92.0171L105.5 92.0059L105.511 91.9946L105.523 91.9833L105.534 91.972L105.545 91.9607L105.557 91.9494L105.568 91.9381L105.579 91.9269L105.588 91.9184L105.59 91.9142L105.602 91.9029L105.613 91.8916L105.624 91.8803L105.636 91.869L105.647 91.8578L105.658 91.8465L105.669 91.8352L105.681 91.8239L105.692 91.8126L105.703 91.8013L105.715 91.7901L105.726 91.7788L105.737 91.7675L105.749 91.7562L105.76 91.7449L105.811 91.6913L105.861 91.6377L105.912 91.5841L105.941 91.5545L105.963 91.5305L106.014 91.4755L106.065 91.4205L106.116 91.3655L106.121 91.3599L106.166 91.3105L106.217 91.2555L106.268 91.2005L106.3 91.1652L106.319 91.1455L106.368 91.0905L106.418 91.0355L106.467 90.979L106.477 90.9692L106.516 90.924L106.615 90.8126L106.652 90.7703L106.665 90.7562L106.81 90.5869L106.824 90.57C106.933 90.4431 107.04 90.3147 107.146 90.1849L107.164 90.1624L107.194 90.1271L107.24 90.0693L107.287 90.0115L107.331 89.9565L107.334 89.9522L107.38 89.893L107.427 89.8337L107.473 89.7745L107.496 89.7463L107.52 89.7153L107.567 89.656L107.612 89.5968L107.657 89.5375L107.658 89.5361L107.702 89.4783L107.747 89.4191L107.792 89.3598L107.818 89.326L107.838 89.3006L107.883 89.2413L107.926 89.1807L107.972 89.12L107.977 89.113L108.017 89.0594L108.061 88.9987L108.104 88.9381L108.134 88.8972L108.148 88.8774L108.192 88.8168L108.236 88.7561L108.278 88.6955L108.288 88.6814L108.322 88.6334L108.364 88.5728L108.406 88.5107L108.439 88.4642L108.449 88.4501L108.491 88.388L108.588 88.2441L108.617 88.2018L108.735 88.0227L108.741 88.0142C110.988 84.6066 112.432 80.6516 112.556 76.5768C112.562 76.3963 112.548 76.5599 112.548 75.9802H112.567C112.566 68.9857 110.384 64.6034 107.578 62.798C106.741 62.2592 105.877 61.9785 105.056 61.9644C104.23 61.9489 103.38 62.1858 102.574 62.6767C99.8569 64.3326 97.6945 68.5329 97.5195 75.5133C97.511 75.8575 97.5124 76.2115 97.5237 76.5712C97.6804 81.7052 99.9388 86.6588 103.261 90.5658C100.98 92.7647 97.9387 94.7929 94.7713 95.4319C90.7528 90.1906 88.078 83.6841 87.8705 76.8363C87.855 76.3314 87.8535 75.8137 87.8663 75.2876C88.1344 64.5822 92.2857 57.6315 97.5407 54.4297C99.9388 52.9685 102.566 52.2689 105.208 52.3182C107.853 52.3676 110.456 53.1546 112.805 54.6667C118.102 58.0757 122.222 65.2832 122.224 75.983H122.243L122.214 76.8434C122.037 82.6079 120.109 88.1327 117.103 92.8676L117.043 92.9622L116.983 93.0566L116.925 93.1455L116.922 93.1511L116.799 93.3387L116.737 93.4318L116.729 93.4445L116.675 93.5249L116.613 93.618L116.551 93.7111L116.53 93.7421L116.487 93.8028L116.425 93.8959L116.411 93.917L116.298 94.0806L116.235 94.1723L116.171 94.264L116.17 94.2654L116.106 94.3543L116.041 94.446L115.976 94.5362L115.917 94.618L115.91 94.6265L115.845 94.7168L115.78 94.807L115.714 94.8973L115.707 94.9058L115.647 94.9862L115.581 95.075L115.515 95.1639L115.495 95.1893L115.447 95.2527L115.379 95.3416L115.279 95.4728L115.244 95.5179L115.176 95.6054L115.108 95.6928L115.063 95.752L115.04 95.7803L114.902 95.9551L114.843 96.0299L114.834 96.0412L114.765 96.1272L114.696 96.2133L114.625 96.2993L114.621 96.3049L114.555 96.3853L114.484 96.47L114.414 96.556L114.395 96.5772L114.342 96.6406L114.271 96.7253L114.199 96.8099L114.168 96.848L114.127 96.8945L114.109 96.9157L113.983 97.0624L113.938 97.116L113.911 97.1456L113.839 97.2288L113.766 97.312L113.705 97.3811L113.692 97.3952L113.546 97.5588L113.472 97.6407L113.471 97.6421C113.225 97.9143 112.977 98.1809 112.724 98.4446C110.426 100.835 107.819 102.872 105.043 104.433L104.861 104.535L104.686 104.631L104.677 104.635L104.495 104.734L104.492 104.735L104.309 104.833L104.305 104.835L104.124 104.93L104.114 104.936L103.939 105.026L103.922 105.034L103.753 105.119L103.73 105.13L103.566 105.211L103.538 105.225L103.38 105.302L103.345 105.319L103.194 105.391L103.151 105.411L103.006 105.479L102.958 105.501L102.818 105.565L102.763 105.59L102.631 105.649L102.57 105.676L102.441 105.732L102.374 105.762L102.252 105.814L102.179 105.845L102.063 105.895L101.983 105.929L101.874 105.974H101.873L101.683 106.051L101.59 106.089L101.494 106.127L101.394 106.167L101.304 106.202L101.198 106.243C98.437 107.302 95.5829 107.883 92.7599 107.883V107.903C92.6061 107.903 92.7275 107.895 92.136 107.876C90.0244 107.813 87.8112 107.364 85.6177 106.532C80.614 104.637 75.4549 100.684 71.6792 94.6815C68.0403 88.8972 65.6507 81.1834 65.9443 71.5696C66.1193 65.8333 67.2457 59.4185 69.6311 52.3422H79.8955L79.8856 52.3479ZM105.031 26.834C108.061 26.834 110.814 28.0695 112.817 30.0682L112.826 30.0597C114.82 32.0527 116.054 34.8059 116.054 37.8469C116.054 40.8878 114.82 43.6411 112.826 45.634C112.74 45.7201 112.651 45.8005 112.559 45.8766C110.582 47.7272 107.934 48.8598 105.033 48.8598C102.004 48.8598 99.25 47.6242 97.2485 45.6256L97.24 45.634C95.2456 43.6411 94.0119 40.8878 94.0119 37.8469C94.0119 34.8059 95.2456 32.0527 97.24 30.0597C97.3261 29.9737 97.415 29.8933 97.5068 29.8171C99.4843 27.9666 102.132 26.834 105.033 26.834H105.031ZM107.342 35.5224C106.761 34.9413 105.945 34.5817 105.031 34.5817C104.189 34.5817 103.428 34.8877 102.858 35.3927L102.721 35.538C102.131 36.1275 101.764 36.9456 101.764 37.8469C101.764 38.7496 102.129 39.5662 102.721 40.1558L102.712 40.1643L102.721 40.1713C103.302 40.7524 104.118 41.1121 105.031 41.1121C105.874 41.1121 106.636 40.806 107.205 40.3011L107.342 40.1558C107.932 39.5662 108.299 38.7482 108.299 37.8469C108.299 36.9442 107.934 36.1275 107.342 35.538L107.351 35.5295L107.342 35.5224ZM116.414 98.2048C116.619 98.2204 116.823 98.2302 117.028 98.2359C117.235 98.2415 117.451 98.2401 117.671 98.233C118.684 98.202 119.828 97.9552 121.046 97.494C124.26 96.2753 127.639 93.6335 130.214 89.5404C132.926 85.23 134.703 79.3455 134.474 71.8362C134.306 66.3171 133.043 59.9263 130.276 52.637C130.239 52.5411 130.207 52.4438 130.177 52.3464H140.442C142.827 59.4213 143.954 65.8347 144.129 71.5725C144.422 81.1848 142.033 88.9014 138.394 94.6857C134.618 100.689 129.459 104.641 124.455 106.536C122.262 107.367 120.048 107.816 117.938 107.879C117.568 107.89 117.189 107.89 116.802 107.882C113.779 107.806 110.727 107.072 107.801 105.806C110.298 104.226 112.591 102.329 114.594 100.243C115.225 99.5857 115.834 98.9058 116.417 98.2034L116.414 98.2048Z" fill="white"/>
</svg>
